

<svg id="brand" data-name="Calque 1" xmlns="http://www.w3.org/2000/svg" viewBox="0 0 99.66 208.33">
    <g class="shadow">
        <!-- <path
            d="M87,137.67c30.83-.64,68.68-10.68,83.55-40.8,12.06-24.46.55-50.22-22.07-63.38-18.92-11-41.78-13.74-63.29-13.46-6.43.08-6.45,10.08,0,10,26.55-.34,65,4.34,77.55,32.2,9.44,20.93-5.22,41.84-23,52.32-15.87,9.37-34.54,12.74-52.75,13.12-6.43.14-6.45,10.14,0,10Z"
            transform="translate(-80.35 -18.96)" style="fill: #009fe3" /> -->
        <!-- <path
            d="M108.73,227.29C137.61,226.62,164,211,174,183.16c8.46-23.55,2.24-51.53-17.56-67.47-14-11.29-31.95-15.32-49.67-15.13-6.43.07-6.45,10.07,0,10,24.69-.27,50.47,9.76,58.52,35.09,6.55,20.61-.53,43.64-16.79,57.67-11,9.5-25.44,13.64-39.77,14-6.43.15-6.45,10.15,0,10Z"
            transform="translate(-80.35 -18.96)" style="fill: #ffed00" />
        <path
            d="M113.73,222.29l-1-59.39c-.11-6.43-10.11-6.45-10,0l1,59.39c.11,6.43,10.11,6.45,10,0Z"
            transform="translate(-80.35 -18.96)" style="fill: #ffed00" /> -->
    </g>
    <g class="logoD">
        <path
            d="M114.48,126.29l-1.43-85.46-.21-12.21c-.1-6.43-10.1-6.45-10,0l1.44,85.45.2,12.22c.11,6.43,10.11,6.45,10,0Z"
            transform="translate(-80.35 -18.96)" style="fill: white" />
        <path
            d="M88.86,136.62c30.83-.64,68.68-10.68,83.55-40.81,12.06-24.45.55-50.21-22.07-63.37C131.42,21.43,108.56,18.7,87.05,19c-6.43.08-6.45,10.08,0,10,26.55-.35,65,4.34,77.55,32.2,9.44,20.93-5.22,41.83-23,52.32-15.87,9.37-34.54,12.74-52.75,13.12-6.43.14-6.45,10.14,0,10Z"
            transform="translate(-80.35 -18.96)" style="fill: white" />
    </g>
    <g class="logoB">
        <path
            d="M111.06,225.58c28.89-.67,55.27-16.28,65.27-44.13,8.46-23.55,2.24-51.53-17.56-67.47-14-11.29-32-15.32-49.66-15.13-6.44.07-6.45,10.07,0,10,24.69-.27,50.46,9.76,58.51,35.09,6.55,20.61-.52,43.64-16.79,57.67-11,9.5-25.44,13.64-39.77,14-6.42.15-6.45,10.15,0,10Z"
            transform="translate(-80.35 -18.96)" style="fill: white" />
        <path
            d="M116.06,220.58l-1-59.39c-.11-6.43-10.11-6.45-10,0l1,59.39c.11,6.43,10.11,6.45,10,0Z"
            transform="translate(-80.35 -18.96)" style="fill: white" />
    </g>
    <g class="ligne">
       <!--  <path class="shadow"
            d="M129.26,153.43l-43.19.72c-6.43.11-6.45,10.11,0,10l43.19-.72c6.43-.11,6.45-10.11,0-10Z"
            transform="translate(-80.35 -18.96)" style="fill: #ffed00" /> -->
        <path
            d="M131.61,152.72l-43.19.72c-6.43.11-6.45,10.11,0,10l43.19-.72c6.43-.11,6.45-10.11,0-10Z"
            transform="translate(-80.35 -18.96)" style="fill: white" />
    </g>
</svg>