<svg id="Calque_1" data-name="Calque 1" xmlns="http://www.w3.org/2000/svg" viewBox="0 0 250 199.09">
  <defs>
    <style>
      .cls-1 {
        fill: #adc0e4;
      }

      .cls-2 {
        fill: #cadff5;
      }

      .cls-3 {
        fill: #adcbec;
      }

      .cls-4 {
        fill: #f6aa78;
      }

      .cls-5 {
        fill: #264791;
      }

      .cls-6 {
        fill: #203865;
      }

      .cls-7 {
        fill: #92aedc;
      }

      .cls-8 {
        fill: #f28f38;
      }

      .cls-9 {
        fill: #ee7610;
      }

      .cls-10 {
        fill: #f39253;
      }

      .cls-11 {
        fill: #5c6db2;
      }

      .cls-12 {
        opacity: 0.9;
      }

      .cls-13 {
        fill: #fff;
      }

      .cls-14 {
        opacity: 0.8;
      }

      .cls-15 {
        fill: #f39355;
      }

      .cls-16 {
        fill: #172844;
      }

      .cls-17 {
        fill: #1a3760;
      }

      .cls-18 {
        opacity: 0.5;
      }

      .cls-19 {
        fill: #ea6427;
      }

      .cls-20 {
        fill: #ef793f;
      }

      .cls-21 {
        fill: #e9f3fb;
      }

      .cls-22 {
        fill: #f9bd98;
      }
    </style>
  </defs>
  <title>Sans titre - 1</title>
  <g>
    <path class="cls-1" d="M149.55,69.09s7-29.09,33.83-32.94c0,0,5.22-.67,7.13,4.21s-8.5,5.18-14.88,7.32S154.53,58.59,149.55,69.09Z" transform="translate(0 -0.74)"/>
    <path class="cls-1" d="M148.75,63.69s-3.61-23.86,15.76-32.84a6,6,0,0,1,6.76,1.62c3,3.31-4.92,5.88-9.14,9S149.33,54.53,148.75,63.69Z" transform="translate(0 -0.74)"/>
  </g>
  <path class="cls-2" d="M40.3,55c3.29-8,19.16-4.43,19.16-4.43S69.16,65.48,72.31,66s-5.37-14.16-5.37-14.16c6.2-.12,21.35,7.32,21.35,7.32s-2.43,16.56.78,16.42,1.27-14.76,1.27-14.76c5.83,1.9,10.88,8.19,10.88,8.19,6.12,10.11-9.4,16.29-9.4,16.29A23.69,23.69,0,0,0,94.73,98h0a18.17,18.17,0,0,1,1.62,3.41l-1.63-.1c-.1-.38-.22-.75-.35-1.1h0c-.09-.23-.22-.54-.39-.92h0a20.5,20.5,0,0,1-.88-2h0c-1.27-2.7-3.12-6.23-4.49-7a2.86,2.86,0,0,0,.41-.62l-.41.62c-3.22,4.91-17.2,4.89-24.83,3s-4.1-3.5.34-6.26S77.22,85.6,79.9,84.57s-1-2.45-6.18-2.43-8.16,4.26-16.56,4.42S43.55,72.91,43.55,72.91c5.63,1.89,16.2-.18,16.74-1.85S45.52,68.6,43.18,67.94,37,63,40.3,55Z" transform="translate(0 -0.74)"/>
  <path class="cls-3" d="M16,180.4c-5.76-8.57,10-17.83,10-17.83s22.87,4.08,25.83,2.11-18.75-6.75-18.75-6.75C37.7,153.16,57,147.4,57,147.4s15.3,14.48,17.6,11.95-14.31-12.23-14.31-12.23c6.42-2.94,16.78-2,16.78-2,15.14,3.1,9.7,19.53,9.7,19.53s5.43,4.92,15.3,7.45h0a29.26,29.26,0,0,1,4.77,1.39l-1.34,1.14c-.47-.21-.94-.4-1.41-.58h0l-1.26-.4h0c-1.22-.34-2.09-.61-2.69-.83h0c-3.76-1.11-8.82-2.4-10.7-2a2.85,2.85,0,0,0-.32-.77l.32.77c2.63,6.18-8.06,16.71-15.8,21.06s-6.74.42-6.22-5,8.53-11,9.52-13.79-3.29-1.12-7.24,2.81-1.81,9.41-8.07,15.87S37,191.64,37,191.64c6.25-2.8,12.18-12.35,10.86-14s-13.82,9.27-16.29,10.53S21.73,189,16,180.4Z" transform="translate(0 -0.74)"/>
  <path class="cls-3" d="M236.38,66.13c-1.12-8.88-18.44-8.5-18.44-8.5S203.73,71,200.34,70.88s9.54-13.43,9.54-13.43c-6.35-1.41-24,3.1-24,3.1s-2.19,17.53-5.45,16.72,2.87-15.43,2.87-15.43c-6.53.75-13.51,6.17-13.51,6.17-9.15,9.13,5,18.69,5,18.69s-.92,6.06-6.57,12.39h0a21.28,21.28,0,0,0-2.63,3.18l1.7.23c.21-.37.44-.73.67-1.07h0v0l.66-.86h0c.68-.79,1.15-1.39,1.45-1.82h0c2.06-2.52,5-5.76,6.6-6.3a2.39,2.39,0,0,1-.24-.72q.1.35.24.72c1.91,5.71,16.29,8.57,24.66,8.25s5.2-2.75,1.43-6.5S189.75,90,187.28,88.39s1.71-2.31,7.05-1.22,7.18,6.06,15.77,8S228,83.91,228,83.91c-6.32.78-16.6-3.53-16.69-5.36s15.88.52,18.48.33S237.5,75,236.38,66.13Z" transform="translate(0 -0.74)"/>
  <path class="cls-3" d="M245.48,174.18c11.48-8-2.53-25.31-2.53-25.31s-29.61-4-32.11-7.51,26.1-.8,26.1-.8c-3-7.52-23-21.91-23-21.91s-26.07,11.41-27.49,7.48S210.13,117,210.13,117c-6.12-6-19.08-8.89-19.08-8.89C171.24,106,169,127.8,169,127.8s-9.13,3.79-22.33,3h0a40.24,40.24,0,0,0-6.46-.19l1,1.9c.68-.07,1.35-.12,2-.15H145c1.64.07,2.83.09,3.67.06h0c5.09.14,11.86.55,13.89,1.79a3.9,3.9,0,0,1,.8-.8l-.8.8c-6.46,6.39.76,23.18,7.71,31.41s7.87,3.13,10.16-3.62-4.38-16.48-4.07-20.24,4.55-.07,7.19,6.19-2.85,12,1.21,22.17,29.48,9.36,29.48,9.36c-6-5.8-8-19.56-5.54-21.07s11.64,16.49,13.93,19S234,182.22,245.48,174.18Z" transform="translate(0 -0.74)"/>
  <g id="man">
    <path class="cls-4" d="M69,113.84c-.54,1.25-1.49,2.71-2.48,3.07a3.87,3.87,0,0,0-1.59,1l-.91-.45L63,116.91a1.74,1.74,0,0,1,.08-.27,6.34,6.34,0,0,1,.24-.66.79.79,0,0,0,.13-.82,1.65,1.65,0,0,1,.18-1.6c.35-.43.69-1.49.89-1.46.51.07-.24,1.53,0,1.8a.43.43,0,0,0,.49.15h0c1.42-.53,3.14-3.41,3.91-3A5.06,5.06,0,0,1,69,113.84Z" transform="translate(0 -0.74)"/>
    <g>
      <path class="cls-5" d="M64.12,115.58l1.78,1.07a.31.31,0,0,0,.39-.05l4.57-5.55a.23.23,0,0,0-.07-.33L69,109.65a.32.32,0,0,0-.39.06l-4.57,5.54A.22.22,0,0,0,64.12,115.58Z" transform="translate(0 -0.74)"/>
      <path class="cls-6" d="M65.75,116.56l1,.63a.23.23,0,0,0,.29,0l4.64-5.64a.16.16,0,0,0,0-.25l-1-.63a.24.24,0,0,0-.3,0l-4.64,5.64A.16.16,0,0,0,65.75,116.56Z" transform="translate(0 -0.74)"/>
    </g>
    <path class="cls-7" d="M38.57,107.63s9.06,13.5,12.35,16L63,115.94a4.26,4.26,0,0,1,2.51,2S58.17,130.63,51,131.17,33.64,115.9,33.64,115.9Z" transform="translate(0 -0.74)"/>
    <g>
      <path class="cls-6" d="M18.06,199.42H12.82a2.72,2.72,0,0,1-1.43-2c-.25-1.44-2.14-2.22-2.55-3.4s1.68-2.84,1.68-2.84l.35-.38.37-.4,3.47.7s.09.7.14,1.6a17.68,17.68,0,0,1,0,2.06c-.1,1.57.51,3.26,2.15,3.57C18.23,198.5,18.17,199.12,18.06,199.42Z" transform="translate(0 -0.74)"/>
      <path class="cls-6" d="M48.45,199.42h-12c-.58-.6-.37-2.81-.28-3.54,0-.14,0-.23,0-.23s4.09-2.79,4.65-.65l.06.2c.71,2,3.88,2.9,5.72,3.16C47.85,198.52,48.29,199.05,48.45,199.42Z" transform="translate(0 -0.74)"/>
      <path class="cls-8" d="M46.17,142.35s-.62,6.62-1.35,14.57c-1,10.8-2.19,24.06-2.3,26.58-.21,4.36-1,11.34-1,11.34s-1.94,1.66-5.82,1a98.88,98.88,0,0,1-4.45-20.51c0-.17,0-.35,0-.52-.92-10.73-2.35-33.33-2.35-33.33Z" transform="translate(0 -0.74)"/>
      <path class="cls-9" d="M46.17,142.35s-.62,6.62-1.35,14.57l-13.6,18.37c0-.17,0-.35,0-.52-.92-10.73-2.35-33.33-2.35-33.33Z" transform="translate(0 -0.74)"/>
      <path class="cls-8" d="M43.33,143.14s-11.19,24-18.55,35.21-9.66,14.4-9.66,14.4-4.21-1.44-4.6-2.43c0,0,2.82-21.73,7.75-27,2.78-3,6.05-12,6.21-15.12s1-9.36,1-9.36Z" transform="translate(0 -0.74)"/>
    </g>
    <path class="cls-4" d="M40.55,108.22c-4.38,1.18-11.94-2-11.94-2a9.3,9.3,0,0,0,3.82-8l3.38,2.33,2.3,1.58a20.24,20.24,0,0,1-.26,2.56,3.46,3.46,0,0,0,1,1.91C40.16,108.08,40.55,108.22,40.55,108.22Z" transform="translate(0 -0.74)"/>
    <path class="cls-10" d="M38.11,102.17a20.24,20.24,0,0,1-.26,2.56c-2.55-.37-5.44-3.88-5.44-3.88a9.39,9.39,0,0,1,3.4-.26Z" transform="translate(0 -0.74)"/>
    <path class="cls-4" d="M39.44,102.08s-7.22,1-7.9-2.83-2.07-6.31,2.52-7.13,5.74.54,6.33,1.78S41.31,101.71,39.44,102.08Z" transform="translate(0 -0.74)"/>
    <path class="cls-1" d="M46.65,142.9a.73.73,0,0,1-.46.15c-1.64,0-6.43.76-10.48.41A34.31,34.31,0,0,1,26,141.07c-.43-.16-1.42-.62-1.4-1s.07-1.1.13-1.93A88.07,88.07,0,0,0,25,124.65c-.07-1.05-.11-2.1-.11-3.14,0-7.69,1.75-14.46,5.35-16.75.3-.19,2.19.6,3.92,1.33a8.31,8.31,0,0,0,4.71.48l1.51,1.14a12.88,12.88,0,0,1,4.73,6.45,62.79,62.79,0,0,1,1.42,12c.11,2.17.2,4.36.22,6.43v.08c0,.2,0,.43,0,.63C46.85,138.6,46.76,142.83,46.65,142.9Z" transform="translate(0 -0.74)"/>
    <path class="cls-7" d="M24.75,138.11A88.07,88.07,0,0,0,25,124.65c-.07-1.05-.11-2.1-.11-3.14,1.5-3.09,2.72-5.34,2.72-5.34h3.77S34.14,132.29,24.75,138.11Z" transform="translate(0 -0.74)"/>
    <g>
      <path class="cls-6" d="M5.43,156.39l16.09,2a3.81,3.81,0,0,0,4.35-2.78l1-5.95a3.42,3.42,0,0,0-3.26-3.72L7.51,143.94a3.81,3.81,0,0,0-4.35,2.78l-1,5.95A3.42,3.42,0,0,0,5.43,156.39Z" transform="translate(0 -0.74)"/>
      <path class="cls-5" d="M24.5,147.67h0a3.72,3.72,0,0,0-2.66-2h0c-.13,0-.25-.05-.38-.06l-3.2-.39.22-1.28a1,1,0,0,0-.25-.81,1.31,1.31,0,0,0-.84-.42l-.83-.11-3.36-.41-.61-.07a1.27,1.27,0,0,0-1.44.92l-.21,1.29-5.53-.67A3.82,3.82,0,0,0,1,146.46l-1,6a3.43,3.43,0,0,0,3.27,3.73l16.06,1.95a3.93,3.93,0,0,0,.84,0h0a4,4,0,0,0,1.25-.27,3.4,3.4,0,0,0,2.27-2.55l1-6A2.75,2.75,0,0,0,24.5,147.67Zm-12.56-4.52a.44.44,0,0,1,.4-.34h.14l.71.08,2.65.33,1.44.17a.43.43,0,0,1,.41.46l-.22,1.28-5.74-.7Z" transform="translate(0 -0.74)"/>
    </g>
    <path class="cls-4" d="M17.66,138.67s-.84,1-.87,1.34c-.23,2.6,1.16,3-2.44,4.41,0,0-1.54.5-1.57-.52s1.07-1,.87-2.46c-.23-1.65-.21-1.67,1.06-2.53l.84-1.18Z" transform="translate(0 -0.74)"/>
    <path class="cls-1" d="M15.52,139.4a14.33,14.33,0,0,0,2.83.14s4-10.63,4.55-11.61,12-12.46,12-12.46l-4.77-10.2s-12.39,17.67-13.65,20.15c-2.08,4.11-2.8,13.31-2.8,13.31A5.54,5.54,0,0,0,15.52,139.4Z" transform="translate(0 -0.74)"/>
    <path class="cls-5" d="M31.54,98.88a.78.78,0,0,0,.62-1c-.12-.87-.12-2,.71-1.79s.87.78,1.21.44.35-1.72,2.82-1.82,3.47.64,4.62.2A2.23,2.23,0,0,0,42.73,93a1.8,1.8,0,0,1-.82.7s1.92-2.24-.3-3.77-4.48-.53-5.77-.47c-2.83.15-4.65.29-5.58,1.88S29.72,97.35,31.54,98.88Z" transform="translate(0 -0.74)"/>
    <path class="cls-4" d="M16.33,139.81s.82.73.87,1c.16,1,.54,1.38.35,1.49-.39.22-.92-.5-1.16-1.14A2.56,2.56,0,0,1,16.33,139.81Z" transform="translate(0 -0.74)"/>
  </g>
  <g>
    <path class="cls-11" d="M165.38,56.39H86.9c-4.31,0-7.81,3-7.81,6.67V191.24c0,3.68,3.5,6.67,7.81,6.67h78.48c4.31,0,7.81-3,7.81-6.67V63.06C173.19,59.39,169.69,56.39,165.38,56.39Z" transform="translate(0 -0.74)"/>
    <path class="cls-5" d="M165.38,54.48H86.9c-5.55,0-10.06,3.85-10.06,8.58V191.24c0,4.74,4.51,8.59,10.06,8.59h78.48c5.55,0,10.06-3.85,10.06-8.59V63.06C175.44,58.33,170.93,54.48,165.38,54.48Zm7.81,136.76c0,3.68-3.5,6.67-7.81,6.67H86.9c-4.31,0-7.81-3-7.81-6.67V63.06c0-3.67,3.5-6.67,7.81-6.67h78.48c4.31,0,7.81,3,7.81,6.67Z" transform="translate(0 -0.74)"/>
  </g>
  <g>
    <g>
      <g class="cls-12">
        <rect class="cls-13" x="95.39" y="91.89" width="63.37" height="54.1"/>
      </g>
      <rect class="cls-5" x="101.74" y="140.31" width="2.52" height="2.15"/>
      <rect class="cls-5" x="104.26" y="140.31" width="2.52" height="2.15"/>
      <rect class="cls-5" x="106.78" y="140.31" width="2.52" height="2.15"/>
      <rect class="cls-5" x="109.3" y="140.31" width="2.52" height="2.15"/>
      <rect class="cls-5" x="111.82" y="140.31" width="2.52" height="2.15"/>
      <rect class="cls-5" x="116.86" y="140.31" width="2.52" height="2.15"/>
      <rect class="cls-5" x="119.37" y="140.31" width="2.52" height="2.15"/>
      <rect class="cls-5" x="126.93" y="140.31" width="2.52" height="2.15"/>
      <rect class="cls-5" x="131.97" y="140.31" width="2.67" height="2.15"/>
      <rect class="cls-5" x="134.63" y="140.31" width="2.52" height="2.15"/>
      <rect class="cls-5" x="139.67" y="140.31" width="2.52" height="2.15"/>
      <rect class="cls-5" x="142.19" y="140.31" width="2.52" height="2.15"/>
      <rect class="cls-5" x="144.71" y="140.31" width="2.52" height="2.15"/>
      <rect class="cls-5" x="147.23" y="140.31" width="2.52" height="2.15"/>
      <rect class="cls-5" x="149.74" y="140.31" width="2.52" height="2.15"/>
      <rect class="cls-5" x="152.26" y="140.31" width="2.67" height="2.15"/>
      <rect class="cls-5" x="99.23" y="140.31" width="2.52" height="2.15"/>
      <rect class="cls-5" x="111.82" y="138.16" width="2.52" height="2.15"/>
      <rect class="cls-5" x="119.37" y="138.16" width="2.52" height="2.15"/>
      <rect class="cls-5" x="124.41" y="138.16" width="2.52" height="2.15"/>
      <rect class="cls-5" x="126.93" y="138.16" width="2.52" height="2.15"/>
      <rect class="cls-5" x="129.45" y="138.16" width="2.52" height="2.15"/>
      <rect class="cls-5" x="131.97" y="138.16" width="2.67" height="2.15"/>
      <rect class="cls-5" x="139.67" y="138.16" width="2.52" height="2.15"/>
      <rect class="cls-5" x="152.26" y="138.16" width="2.67" height="2.15"/>
      <rect class="cls-5" x="99.23" y="138.16" width="2.52" height="2.15"/>
      <rect class="cls-5" x="104.26" y="136.01" width="2.52" height="2.15"/>
      <rect class="cls-5" x="106.78" y="136.01" width="2.52" height="2.15"/>
      <rect class="cls-5" x="111.82" y="136.01" width="2.52" height="2.15"/>
      <rect class="cls-5" x="116.86" y="136.01" width="2.52" height="2.15"/>
      <rect class="cls-5" x="119.37" y="136.01" width="2.52" height="2.15"/>
      <rect class="cls-5" x="121.89" y="136.01" width="2.52" height="2.15"/>
      <rect class="cls-5" x="126.93" y="136.01" width="2.52" height="2.15"/>
      <rect class="cls-5" x="129.45" y="136.01" width="2.52" height="2.15"/>
      <rect class="cls-5" x="131.97" y="136.01" width="2.67" height="2.15"/>
      <rect class="cls-5" x="134.63" y="136.01" width="2.52" height="2.15"/>
      <rect class="cls-5" x="139.67" y="136.01" width="2.52" height="2.15"/>
      <rect class="cls-5" x="144.71" y="136.01" width="2.52" height="2.15"/>
      <rect class="cls-5" x="147.23" y="136.01" width="2.52" height="2.15"/>
      <rect class="cls-5" x="152.26" y="136.01" width="2.67" height="2.15"/>
      <rect class="cls-5" x="99.23" y="136.01" width="2.52" height="2.15"/>
      <rect class="cls-5" x="104.26" y="133.86" width="2.52" height="2.15"/>
      <rect class="cls-5" x="106.78" y="133.86" width="2.52" height="2.15"/>
      <rect class="cls-5" x="111.82" y="133.86" width="2.52" height="2.15"/>
      <rect class="cls-5" x="116.86" y="133.86" width="2.52" height="2.15"/>
      <rect class="cls-5" x="121.89" y="133.86" width="2.52" height="2.15"/>
      <rect class="cls-5" x="126.93" y="133.86" width="2.52" height="2.15"/>
      <rect class="cls-5" x="139.67" y="133.86" width="2.52" height="2.15"/>
      <rect class="cls-5" x="144.71" y="133.86" width="2.52" height="2.15"/>
      <rect class="cls-5" x="147.23" y="133.86" width="2.52" height="2.15"/>
      <rect class="cls-5" x="152.26" y="133.86" width="2.67" height="2.15"/>
      <rect class="cls-5" x="99.23" y="133.86" width="2.52" height="2.15"/>
      <rect class="cls-5" x="111.82" y="131.71" width="2.52" height="2.15"/>
      <rect class="cls-5" x="116.86" y="131.71" width="2.52" height="2.15"/>
      <rect class="cls-5" x="119.37" y="131.71" width="2.52" height="2.15"/>
      <rect class="cls-5" x="121.89" y="131.71" width="2.52" height="2.15"/>
      <rect class="cls-5" x="126.93" y="131.71" width="2.52" height="2.15"/>
      <rect class="cls-5" x="129.45" y="131.71" width="2.52" height="2.15"/>
      <rect class="cls-5" x="134.63" y="131.71" width="2.52" height="2.15"/>
      <rect class="cls-5" x="139.67" y="131.71" width="2.52" height="2.15"/>
      <rect class="cls-5" x="152.26" y="131.71" width="2.67" height="2.15"/>
      <rect class="cls-5" x="99.23" y="131.71" width="2.52" height="2.15"/>
      <rect class="cls-5" x="101.74" y="129.56" width="2.52" height="2.15"/>
      <rect class="cls-5" x="104.26" y="129.56" width="2.52" height="2.15"/>
      <rect class="cls-5" x="106.78" y="129.56" width="2.52" height="2.15"/>
      <rect class="cls-5" x="109.3" y="129.56" width="2.52" height="2.15"/>
      <rect class="cls-5" x="111.82" y="129.56" width="2.52" height="2.15"/>
      <rect class="cls-5" x="116.86" y="129.56" width="2.52" height="2.15"/>
      <rect class="cls-5" x="121.89" y="129.56" width="2.52" height="2.15"/>
      <rect class="cls-5" x="124.41" y="129.56" width="2.52" height="2.15"/>
      <rect class="cls-5" x="129.45" y="129.56" width="2.52" height="2.15"/>
      <rect class="cls-5" x="139.67" y="129.56" width="2.52" height="2.15"/>
      <rect class="cls-5" x="142.19" y="129.56" width="2.52" height="2.15"/>
      <rect class="cls-5" x="144.71" y="129.56" width="2.52" height="2.15"/>
      <rect class="cls-5" x="147.23" y="129.56" width="2.52" height="2.15"/>
      <rect class="cls-5" x="149.74" y="129.56" width="2.52" height="2.15"/>
      <rect class="cls-5" x="152.26" y="129.56" width="2.67" height="2.15"/>
      <rect class="cls-5" x="99.23" y="129.56" width="2.52" height="2.15"/>
      <rect class="cls-5" x="124.41" y="127.41" width="2.52" height="2.15"/>
      <rect class="cls-5" x="126.93" y="127.41" width="2.52" height="2.15"/>
      <rect class="cls-5" x="129.45" y="127.41" width="2.52" height="2.15"/>
      <rect class="cls-5" x="134.63" y="127.41" width="2.52" height="2.15"/>
      <rect class="cls-5" x="101.74" y="125.26" width="2.52" height="2.15"/>
      <rect class="cls-5" x="104.26" y="125.26" width="2.52" height="2.15"/>
      <rect class="cls-5" x="106.78" y="125.26" width="2.52" height="2.15"/>
      <rect class="cls-5" x="109.3" y="125.26" width="2.52" height="2.15"/>
      <rect class="cls-5" x="116.86" y="125.26" width="2.52" height="2.15"/>
      <rect class="cls-5" x="119.37" y="125.26" width="2.52" height="2.15"/>
      <rect class="cls-5" x="121.89" y="125.26" width="2.52" height="2.15"/>
      <rect class="cls-5" x="126.93" y="125.26" width="2.52" height="2.15"/>
      <rect class="cls-5" x="129.45" y="125.26" width="2.52" height="2.15"/>
      <rect class="cls-5" x="131.97" y="125.26" width="2.67" height="2.15"/>
      <rect class="cls-5" x="134.63" y="125.26" width="2.52" height="2.15"/>
      <rect class="cls-5" x="137.15" y="125.26" width="2.52" height="2.15"/>
      <rect class="cls-5" x="139.67" y="125.26" width="2.52" height="2.15"/>
      <rect class="cls-5" x="142.19" y="125.26" width="2.52" height="2.15"/>
      <rect class="cls-5" x="144.71" y="125.26" width="2.52" height="2.15"/>
      <rect class="cls-5" x="149.74" y="125.26" width="2.52" height="2.15"/>
      <rect class="cls-5" x="152.26" y="125.26" width="2.67" height="2.15"/>
      <rect class="cls-5" x="104.26" y="123.11" width="2.52" height="2.15"/>
      <rect class="cls-5" x="106.78" y="123.11" width="2.52" height="2.15"/>
      <rect class="cls-5" x="114.34" y="123.11" width="2.52" height="2.15"/>
      <rect class="cls-5" x="116.86" y="123.11" width="2.52" height="2.15"/>
      <rect class="cls-5" x="121.89" y="123.11" width="2.52" height="2.15"/>
      <rect class="cls-5" x="129.45" y="123.11" width="2.52" height="2.15"/>
      <rect class="cls-5" x="134.63" y="123.11" width="2.52" height="2.15"/>
      <rect class="cls-5" x="137.15" y="123.11" width="2.52" height="2.15"/>
      <rect class="cls-5" x="142.19" y="123.11" width="2.52" height="2.15"/>
      <rect class="cls-5" x="144.71" y="123.11" width="2.52" height="2.15"/>
      <rect class="cls-5" x="101.74" y="120.96" width="2.52" height="2.15"/>
      <rect class="cls-5" x="106.78" y="120.96" width="2.52" height="2.15"/>
      <rect class="cls-5" x="109.3" y="120.96" width="2.52" height="2.15"/>
      <rect class="cls-5" x="111.82" y="120.96" width="2.52" height="2.15"/>
      <rect class="cls-5" x="114.34" y="120.96" width="2.52" height="2.15"/>
      <rect class="cls-5" x="119.37" y="120.96" width="2.52" height="2.15"/>
      <rect class="cls-5" x="121.89" y="120.96" width="2.52" height="2.15"/>
      <rect class="cls-5" x="124.41" y="120.96" width="2.52" height="2.15"/>
      <rect class="cls-5" x="126.93" y="120.96" width="2.52" height="2.15"/>
      <rect class="cls-5" x="129.45" y="120.96" width="2.52" height="2.15"/>
      <rect class="cls-5" x="131.97" y="120.96" width="2.67" height="2.15"/>
      <rect class="cls-5" x="144.71" y="120.96" width="2.52" height="2.15"/>
      <rect class="cls-5" x="147.23" y="120.96" width="2.52" height="2.15"/>
      <rect class="cls-5" x="152.26" y="120.96" width="2.67" height="2.15"/>
      <rect class="cls-5" x="99.23" y="120.96" width="2.52" height="2.15"/>
      <rect class="cls-5" x="101.74" y="118.81" width="2.52" height="2.15"/>
      <rect class="cls-5" x="104.26" y="118.81" width="2.52" height="2.15"/>
      <rect class="cls-5" x="106.78" y="118.81" width="2.52" height="2.15"/>
      <rect class="cls-5" x="116.86" y="118.81" width="2.52" height="2.15"/>
      <rect class="cls-5" x="119.37" y="118.81" width="2.52" height="2.15"/>
      <rect class="cls-5" x="129.45" y="118.81" width="2.52" height="2.15"/>
      <rect class="cls-5" x="137.15" y="118.81" width="2.52" height="2.15"/>
      <rect class="cls-5" x="139.67" y="118.81" width="2.52" height="2.15"/>
      <rect class="cls-5" x="144.71" y="118.81" width="2.52" height="2.15"/>
      <rect class="cls-5" x="147.23" y="118.81" width="2.52" height="2.15"/>
      <rect class="cls-5" x="149.74" y="118.81" width="2.52" height="2.15"/>
      <rect class="cls-5" x="152.26" y="118.81" width="2.67" height="2.15"/>
      <rect class="cls-5" x="99.23" y="118.81" width="2.52" height="2.15"/>
      <rect class="cls-5" x="106.78" y="116.66" width="2.52" height="2.15"/>
      <rect class="cls-5" x="109.3" y="116.66" width="2.52" height="2.15"/>
      <rect class="cls-5" x="111.82" y="116.66" width="2.52" height="2.15"/>
      <rect class="cls-5" x="114.34" y="116.66" width="2.52" height="2.15"/>
      <rect class="cls-5" x="116.86" y="116.66" width="2.52" height="2.15"/>
      <rect class="cls-5" x="119.37" y="116.66" width="2.52" height="2.15"/>
      <rect class="cls-5" x="126.93" y="116.66" width="2.52" height="2.15"/>
      <rect class="cls-5" x="134.63" y="116.66" width="2.52" height="2.15"/>
      <rect class="cls-5" x="137.15" y="116.66" width="2.52" height="2.15"/>
      <rect class="cls-5" x="147.23" y="116.66" width="2.52" height="2.15"/>
      <rect class="cls-5" x="99.23" y="116.66" width="2.52" height="2.15"/>
      <rect class="cls-5" x="101.74" y="114.51" width="2.52" height="2.15"/>
      <rect class="cls-5" x="104.26" y="114.51" width="2.52" height="2.15"/>
      <rect class="cls-5" x="106.78" y="114.51" width="2.52" height="2.15"/>
      <rect class="cls-5" x="109.3" y="114.51" width="2.52" height="2.15"/>
      <rect class="cls-5" x="114.34" y="114.51" width="2.52" height="2.15"/>
      <rect class="cls-5" x="119.37" y="114.51" width="2.52" height="2.15"/>
      <rect class="cls-5" x="121.89" y="114.51" width="2.52" height="2.15"/>
      <rect class="cls-5" x="126.93" y="114.51" width="2.52" height="2.15"/>
      <rect class="cls-5" x="129.45" y="114.51" width="2.52" height="2.15"/>
      <rect class="cls-5" x="131.97" y="114.51" width="2.67" height="2.15"/>
      <rect class="cls-5" x="134.63" y="114.51" width="2.52" height="2.15"/>
      <rect class="cls-5" x="139.67" y="114.51" width="2.52" height="2.15"/>
      <rect class="cls-5" x="142.19" y="114.51" width="2.52" height="2.15"/>
      <rect class="cls-5" x="144.71" y="114.51" width="2.52" height="2.15"/>
      <rect class="cls-5" x="147.23" y="114.51" width="2.52" height="2.15"/>
      <rect class="cls-5" x="152.26" y="114.51" width="2.67" height="2.15"/>
      <rect class="cls-5" x="101.74" y="112.36" width="2.52" height="2.15"/>
      <rect class="cls-5" x="106.78" y="112.36" width="2.52" height="2.15"/>
      <rect class="cls-5" x="111.82" y="112.36" width="2.52" height="2.15"/>
      <rect class="cls-5" x="114.34" y="112.36" width="2.52" height="2.15"/>
      <rect class="cls-5" x="121.89" y="112.36" width="2.52" height="2.15"/>
      <rect class="cls-5" x="124.41" y="112.36" width="2.52" height="2.15"/>
      <rect class="cls-5" x="126.93" y="112.36" width="2.52" height="2.15"/>
      <rect class="cls-5" x="131.97" y="112.36" width="2.67" height="2.15"/>
      <rect class="cls-5" x="134.63" y="112.36" width="2.52" height="2.15"/>
      <rect class="cls-5" x="137.15" y="112.36" width="2.52" height="2.15"/>
      <rect class="cls-5" x="142.19" y="112.36" width="2.52" height="2.15"/>
      <rect class="cls-5" x="147.23" y="112.36" width="2.52" height="2.15"/>
      <rect class="cls-5" x="149.74" y="112.36" width="2.52" height="2.15"/>
      <rect class="cls-5" x="152.26" y="112.36" width="2.67" height="2.15"/>
      <rect class="cls-5" x="99.23" y="112.36" width="2.52" height="2.15"/>
      <rect class="cls-5" x="101.74" y="110.21" width="2.52" height="2.15"/>
      <rect class="cls-5" x="111.82" y="110.21" width="2.52" height="2.15"/>
      <rect class="cls-5" x="114.34" y="110.21" width="2.52" height="2.15"/>
      <rect class="cls-5" x="119.37" y="110.21" width="2.52" height="2.15"/>
      <rect class="cls-5" x="121.89" y="110.21" width="2.52" height="2.15"/>
      <rect class="cls-5" x="126.93" y="110.21" width="2.52" height="2.15"/>
      <rect class="cls-5" x="129.45" y="110.21" width="2.52" height="2.15"/>
      <rect class="cls-5" x="134.63" y="110.21" width="2.52" height="2.15"/>
      <rect class="cls-5" x="137.15" y="110.21" width="2.52" height="2.15"/>
      <rect class="cls-5" x="139.67" y="110.21" width="2.52" height="2.15"/>
      <rect class="cls-5" x="142.19" y="110.21" width="2.52" height="2.15"/>
      <rect class="cls-5" x="144.71" y="110.21" width="2.52" height="2.15"/>
      <rect class="cls-5" x="147.23" y="110.21" width="2.52" height="2.15"/>
      <rect class="cls-5" x="99.23" y="110.21" width="2.52" height="2.15"/>
      <rect class="cls-5" x="119.37" y="108.06" width="2.52" height="2.15"/>
      <rect class="cls-5" x="124.41" y="108.06" width="2.52" height="2.15"/>
      <rect class="cls-5" x="126.93" y="108.06" width="2.52" height="2.15"/>
      <rect class="cls-5" x="131.97" y="108.06" width="2.67" height="2.15"/>
      <rect class="cls-5" x="134.63" y="108.06" width="2.52" height="2.15"/>
      <rect class="cls-5" x="137.15" y="108.06" width="2.52" height="2.15"/>
      <rect class="cls-5" x="101.74" y="105.91" width="2.52" height="2.15"/>
      <rect class="cls-5" x="104.26" y="105.91" width="2.52" height="2.15"/>
      <rect class="cls-5" x="106.78" y="105.91" width="2.52" height="2.15"/>
      <rect class="cls-5" x="109.3" y="105.91" width="2.52" height="2.15"/>
      <rect class="cls-5" x="111.82" y="105.91" width="2.52" height="2.15"/>
      <rect class="cls-5" x="116.86" y="105.91" width="2.52" height="2.15"/>
      <rect class="cls-5" x="119.37" y="105.91" width="2.52" height="2.15"/>
      <rect class="cls-5" x="126.93" y="105.91" width="2.52" height="2.15"/>
      <rect class="cls-5" x="137.15" y="105.91" width="2.52" height="2.15"/>
      <rect class="cls-5" x="139.67" y="105.91" width="2.52" height="2.15"/>
      <rect class="cls-5" x="144.71" y="105.91" width="2.52" height="2.15"/>
      <rect class="cls-5" x="152.26" y="105.91" width="2.67" height="2.15"/>
      <rect class="cls-5" x="99.23" y="105.91" width="2.52" height="2.15"/>
      <rect class="cls-5" x="111.82" y="103.76" width="2.52" height="2.15"/>
      <rect class="cls-5" x="131.97" y="103.76" width="2.67" height="2.15"/>
      <rect class="cls-5" x="134.63" y="103.76" width="2.52" height="2.15"/>
      <rect class="cls-5" x="139.67" y="103.76" width="2.52" height="2.15"/>
      <rect class="cls-5" x="142.19" y="103.76" width="2.52" height="2.15"/>
      <rect class="cls-5" x="147.23" y="103.76" width="2.52" height="2.15"/>
      <rect class="cls-5" x="149.74" y="103.76" width="2.52" height="2.15"/>
      <rect class="cls-5" x="152.26" y="103.76" width="2.67" height="2.15"/>
      <rect class="cls-5" x="99.23" y="103.76" width="2.52" height="2.15"/>
      <rect class="cls-5" x="104.26" y="101.61" width="2.52" height="2.15"/>
      <rect class="cls-5" x="106.78" y="101.61" width="2.52" height="2.15"/>
      <rect class="cls-5" x="111.82" y="101.61" width="2.52" height="2.15"/>
      <rect class="cls-5" x="116.86" y="101.61" width="2.52" height="2.15"/>
      <rect class="cls-5" x="119.37" y="101.61" width="2.52" height="2.15"/>
      <rect class="cls-5" x="124.41" y="101.61" width="2.52" height="2.15"/>
      <rect class="cls-5" x="126.93" y="101.61" width="2.52" height="2.15"/>
      <rect class="cls-5" x="131.97" y="101.61" width="2.67" height="2.15"/>
      <rect class="cls-5" x="142.19" y="101.61" width="2.52" height="2.15"/>
      <rect class="cls-5" x="144.71" y="101.61" width="2.52" height="2.15"/>
      <rect class="cls-5" x="147.23" y="101.61" width="2.52" height="2.15"/>
      <rect class="cls-5" x="99.23" y="101.61" width="2.52" height="2.15"/>
      <rect class="cls-5" x="104.26" y="99.46" width="2.52" height="2.15"/>
      <rect class="cls-5" x="106.78" y="99.46" width="2.52" height="2.15"/>
      <rect class="cls-5" x="111.82" y="99.46" width="2.52" height="2.15"/>
      <rect class="cls-5" x="116.86" y="99.46" width="2.52" height="2.15"/>
      <rect class="cls-5" x="121.89" y="99.46" width="2.52" height="2.15"/>
      <rect class="cls-5" x="124.41" y="99.46" width="2.52" height="2.15"/>
      <rect class="cls-5" x="126.93" y="99.46" width="2.52" height="2.15"/>
      <rect class="cls-5" x="129.45" y="99.46" width="2.52" height="2.15"/>
      <rect class="cls-5" x="131.97" y="99.46" width="2.67" height="2.15"/>
      <rect class="cls-5" x="137.15" y="99.46" width="2.52" height="2.15"/>
      <rect class="cls-5" x="139.67" y="99.46" width="2.52" height="2.15"/>
      <rect class="cls-5" x="142.19" y="99.46" width="2.52" height="2.15"/>
      <rect class="cls-5" x="147.23" y="99.46" width="2.52" height="2.15"/>
      <rect class="cls-5" x="149.74" y="99.46" width="2.52" height="2.15"/>
      <rect class="cls-5" x="152.26" y="99.46" width="2.67" height="2.15"/>
      <rect class="cls-5" x="99.23" y="99.46" width="2.52" height="2.15"/>
      <rect class="cls-5" x="111.82" y="97.31" width="2.52" height="2.15"/>
      <rect class="cls-5" x="121.89" y="97.31" width="2.52" height="2.15"/>
      <rect class="cls-5" x="124.41" y="97.31" width="2.52" height="2.15"/>
      <rect class="cls-5" x="129.45" y="97.31" width="2.52" height="2.15"/>
      <rect class="cls-5" x="131.97" y="97.31" width="2.67" height="2.15"/>
      <rect class="cls-5" x="134.63" y="97.31" width="2.52" height="2.15"/>
      <rect class="cls-5" x="137.15" y="97.31" width="2.52" height="2.15"/>
      <rect class="cls-5" x="149.74" y="97.31" width="2.52" height="2.15"/>
      <rect class="cls-5" x="99.23" y="97.31" width="2.52" height="2.15"/>
      <rect class="cls-5" x="101.74" y="95.16" width="2.52" height="2.15"/>
      <rect class="cls-5" x="104.26" y="95.16" width="2.52" height="2.15"/>
      <rect class="cls-5" x="106.78" y="95.16" width="2.52" height="2.15"/>
      <rect class="cls-5" x="109.3" y="95.16" width="2.52" height="2.15"/>
      <rect class="cls-5" x="111.82" y="95.16" width="2.52" height="2.15"/>
      <rect class="cls-5" x="116.86" y="95.16" width="2.52" height="2.15"/>
      <rect class="cls-5" x="119.37" y="95.16" width="2.52" height="2.15"/>
      <rect class="cls-5" x="131.97" y="95.16" width="2.67" height="2.15"/>
      <rect class="cls-5" x="137.15" y="95.16" width="2.52" height="2.15"/>
      <rect class="cls-5" x="142.19" y="95.16" width="2.52" height="2.15"/>
      <rect class="cls-5" x="144.71" y="95.16" width="2.52" height="2.15"/>
      <rect class="cls-5" x="152.26" y="95.16" width="2.67" height="2.15"/>
      <rect class="cls-5" x="99.23" y="95.16" width="2.52" height="2.15"/>
    </g>
    <g class="cls-14">
      <path class="cls-13" d="M90.81,100.14a.84.84,0,0,1-.9-.77V88.94a.84.84,0,0,1,.9-.76h12.32a.78.78,0,1,1,0,1.53H91.7v9.66A.84.84,0,0,1,90.81,100.14Z" transform="translate(0 -0.74)"/>
      <path class="cls-13" d="M163.35,100.18a.84.84,0,0,1-.9-.76V89.66H151.13a.77.77,0,1,1,0-1.53h12.22a.83.83,0,0,1,.89.77V99.42A.83.83,0,0,1,163.35,100.18Z" transform="translate(0 -0.74)"/>
    </g>
    <g class="cls-14">
      <path class="cls-13" d="M163.35,152.58H151a.77.77,0,1,1,0-1.53h11.43v-9.66a.91.91,0,0,1,1.79,0v10.43A.83.83,0,0,1,163.35,152.58Z" transform="translate(0 -0.74)"/>
      <path class="cls-13" d="M103,152.63H90.81a.84.84,0,0,1-.9-.76V141.34a.91.91,0,0,1,1.79,0v9.76H103a.78.78,0,1,1,0,1.53Z" transform="translate(0 -0.74)"/>
    </g>
  </g>
  <g>
    <g>
      <path class="cls-13" d="M158.76,167.09v1.46a1.59,1.59,0,0,1-1.7,1.45h-60a1.6,1.6,0,0,1-1.7-1.45v-1.46a1.6,1.6,0,0,1,1.7-1.45h60A1.59,1.59,0,0,1,158.76,167.09Z" transform="translate(0 -0.74)"/>
      <g>
        <path class="cls-9" d="M139.67,165.64V170H97.09a1.6,1.6,0,0,1-1.7-1.45v-1.46a1.6,1.6,0,0,1,1.7-1.45Z" transform="translate(0 -0.74)"/>
        <g>
          <polygon class="cls-8" points="130.8 164.9 126.09 169.26 117.27 169.26 121.98 164.9 130.8 164.9"/>
          <polygon class="cls-8" points="139.67 164.9 139.67 169.26 131.5 169.26 136.21 164.9 139.67 164.9"/>
          <polygon class="cls-8" points="116.61 164.9 111.89 169.26 103.08 169.26 107.79 164.9 116.61 164.9"/>
          <path class="cls-8" d="M102.41,165.64,97.7,170h-.64a1.59,1.59,0,0,1-1.7-1.45v-1.46a1.59,1.59,0,0,1,1.7-1.45Z" transform="translate(0 -0.74)"/>
        </g>
      </g>
    </g>
    <g>
      <path class="cls-13" d="M120.58,163.15l.33-.34a1.59,1.59,0,0,0,1,.36c.35,0,.56-.14.56-.35s-.12-.3-.71-.42-1.06-.3-1.06-.81.46-.79,1.09-.79a2,2,0,0,1,1.15.34l-.3.36a1.61,1.61,0,0,0-.86-.27c-.33,0-.52.14-.52.32s.15.31.75.43,1,.34,1,.8-.47.81-1.13.81A2.16,2.16,0,0,1,120.58,163.15Z" transform="translate(0 -0.74)"/>
      <path class="cls-13" d="M123.55,162.2a1.49,1.49,0,0,1,1.63-1.4,1.79,1.79,0,0,1,1.24.42l-.36.35a1.35,1.35,0,0,0-.88-.34,1,1,0,1,0,0,1.93,1.39,1.39,0,0,0,.91-.35l.35.31a1.77,1.77,0,0,1-1.28.47A1.49,1.49,0,0,1,123.55,162.2Z" transform="translate(0 -0.74)"/>
      <path class="cls-13" d="M128.15,160.82h.52l1.39,2.73h-.59l-.32-.65h-1.5l-.32.65h-.57Zm.8,1.65-.55-1.08-.54,1.08Z" transform="translate(0 -0.74)"/>
      <path class="cls-13" d="M130.6,160.84h.52l1.7,1.87v-1.87h.54v2.71h-.46l-1.75-1.93v1.93h-.55Z" transform="translate(0 -0.74)"/>
    </g>
  </g>
  <g id="girl_2" data-name="girl 2">
    <path class="cls-6" d="M174.6,141.83a9.26,9.26,0,0,1,8.28,2c5.1,4.73,1.34,8.38,3.89,11.69,1.54,2,2.84,5.5-1.94,7.57-2.21,1-8.79,6-10.14,6.09-13.66,1.19-13.9-10.63-9.3-14.06C171.86,150.32,166,144,174.6,141.83Z" transform="translate(0 -0.74)"/>
    <path class="cls-15" d="M181.73,160.12s12.47,5.16,14.8,5.07,16.93-4.48,16.93-4.48l-.36,2.12s-11.11,5.45-15,5.76S181.22,165.66,180,165,178.07,160.81,181.73,160.12Z" transform="translate(0 -0.74)"/>
    <path class="cls-4" d="M183.11,165a13.54,13.54,0,0,1-4.33,1.57c-6.66,1.32-9.22-3.49-10.18-6.79a6.36,6.36,0,0,1,2.26-.59c.48,0,1-.08,1.41-.1.75-.49,1.86-2.5,2.11-5.61l.31.08,5.26,1.22s-.24,1.43-.36,2.78a4.54,4.54,0,0,0,.13,2.31l.65.12h0A26.68,26.68,0,0,1,183.11,165Z" transform="translate(0 -0.74)"/>
    <path class="cls-15" d="M180,154.76s-.25,1.43-.36,2.78a6,6,0,0,1-4.9-4Z" transform="translate(0 -0.74)"/>
    <path class="cls-4" d="M180.83,156.1s-7.06-.33-6.75-4.08-.39-6.33,4.13-6.27,5.28,1.54,5.54,2.81S182.68,156.09,180.83,156.1Z" transform="translate(0 -0.74)"/>
    <path class="cls-6" d="M183.71,146.46c-1-1.19-1.84-1-2.33-.69a5.54,5.54,0,0,0-6.41.48,7.33,7.33,0,0,1-3.11,4.07s1.26.85,4.25.29a7.1,7.1,0,0,0,5.33-4,4,4,0,0,1,1.32,1.35,5.17,5.17,0,0,1,.78,3S185.2,148.25,183.71,146.46Z" transform="translate(0 -0.74)"/>
    <path class="cls-8" d="M166.59,177.24c-.64-2.78-2.72-13.9-.64-17.48.75-1.29,3.68-1.4,6.9-1.29,1,.55,4.81,2.63,6.38,2.37h.08c.74-.16,1-.6.41-1a33.06,33.06,0,0,1,3.39.4,24.62,24.62,0,0,1,4.18,1.79,8.8,8.8,0,0,1-3.63,2.65c.38,2.91-.18,4.19-3.71,10.9a11.11,11.11,0,0,0,.4,10.78s-17.57,12.06-17.67,5.92C162.61,187.67,167.41,180.8,166.59,177.24Z" transform="translate(0 -0.74)"/>
    <path class="cls-7" d="M181.22,199.48a3.37,3.37,0,0,0,2.35-1.22l.27-.35c2-2.58,2.78-10.49,7.27-18.92,1.1-2.06,5-2.43,6.1-4.75,0,0,2.64-7.52-5.05-7.74s-20.59,20.93-20.8,23.14S166.28,200.92,181.22,199.48Z" transform="translate(0 -0.74)"/>
    <path class="cls-16" d="M211.78,199.44H200.84a3.52,3.52,0,0,1,.31-2.57,1.68,1.68,0,0,0-.08-2.21,4.67,4.67,0,0,0,1.84.3,4,4,0,0,0,1.63-.5,35.85,35.85,0,0,0,3.12,2.87C208.37,197.79,211.56,197.62,211.78,199.44Z" transform="translate(0 -0.74)"/>
    <path class="cls-7" d="M197.46,168.68c.66,4.21,3.24,17.53,7.78,24,1.46,2.1-3.69,3.27-3.72,3.27a8.92,8.92,0,0,1-2.37-1.51c-3.69-2.83-11.17-10.86-11.17-17.3,0-3.14-.06-9.14,2.61-10.66C192.24,165.56,197.2,167,197.46,168.68Z" transform="translate(0 -0.74)"/>
    <path class="cls-9" d="M167,165s2.22,3.86,12.59,6.58,4.44-4.12,4.44-4.12l-14.5-4.33Z" transform="translate(0 -0.74)"/>
    <path class="cls-1" d="M175.87,199.49a6.37,6.37,0,0,0,.91-1.76,60.27,60.27,0,0,1,1.93-5.79c1.19-2.88,2.59-6.43,4.35-10.12.55-1.14,1.12-2.29,1.74-3.44,1.09-2.06,4.11-1.77,5.18-4.09,0,0,4.18-8-3.51-8.27s-22.3,21.52-23.14,23.62C162.41,192,159.11,201.7,175.87,199.49Z" transform="translate(0 -0.74)"/>
    <path class="cls-17" d="M203.75,199.44H192.8a3.52,3.52,0,0,1,.31-2.57,1.66,1.66,0,0,0-.08-2.21,4.69,4.69,0,0,0,1.85.3,4.11,4.11,0,0,0,1.63-.5,35.71,35.71,0,0,0,3.11,2.87C200.34,197.79,203.53,197.62,203.75,199.44Z" transform="translate(0 -0.74)"/>
    <g class="cls-18">
      <path class="cls-7" d="M178.71,191.94c1.19-2.88,2.59-6.43,4.35-10.12-.46-2.8-1.45-5.24-3.11-6.23C180,175.59,175.9,186.29,178.71,191.94Z" transform="translate(0 -0.74)"/>
    </g>
    <path class="cls-1" d="M191.08,168.38c.65,4.21,1.58,17.83,6.12,24.32,1.47,2.1-3.68,3.27-3.71,3.27a9.14,9.14,0,0,1-2.38-1.51c-3.68-2.83-11.16-10.86-11.16-17.3,0-3.14,4.31-8.89,7-10.41C188.58,165.81,190.81,166.7,191.08,168.38Z" transform="translate(0 -0.74)"/>
    <g>
      <path class="cls-19" d="M214.77,155.28l-11.21-1a.72.72,0,0,0-.75.4l-4,9a.63.63,0,0,0,.64.84l11.13.38a.72.72,0,0,0,.69-.38l4.1-8.36A.62.62,0,0,0,214.77,155.28Z" transform="translate(0 -0.74)"/>
      <path class="cls-20" d="M215.74,155.36l-11.21-1a.75.75,0,0,0-.75.39l-4,9c-.18.39.15.82.65.84l11.12.38a.75.75,0,0,0,.7-.38l4.09-8.36A.63.63,0,0,0,215.74,155.36Z" transform="translate(0 -0.74)"/>
      <path class="cls-21" d="M209.53,159.57c.14-.33-.06-.59-.43-.59a1.06,1.06,0,0,0-.93.59c-.14.32.05.58.43.58A1.08,1.08,0,0,0,209.53,159.57Z" transform="translate(0 -0.74)"/>
      <path class="cls-21" d="M215.41,156.22c.06-.16,0-.29-.22-.29a.53.53,0,0,0-.45.29c-.07.15,0,.28.21.28A.54.54,0,0,0,215.41,156.22Z" transform="translate(0 -0.74)"/>
    </g>
    <path class="cls-4" d="M168.6,159.76s15.54,4.88,17.87,4.78c1.51-.06,14.05-3.83,14.05-3.83l1.13,1.82s-12.21,6.7-15.56,6.67c-6.63-.07-17.81-3.54-19.07-4.22A3,3,0,0,1,168.6,159.76Z" transform="translate(0 -0.74)"/>
    <path class="cls-4" d="M200.52,160.71s1.13-1.47,2.25-1.52a20,20,0,0,1,3.72.76c.66.11,2.55.63,2,1.42s-3.16.95-4.28.78a6,6,0,0,0-2.55.38Z" transform="translate(0 -0.74)"/>
    <path class="cls-4" d="M202.46,159.24s1.79-.7,2.3-.83.4,0,.25.41-1.07.81-1.07.94S202.46,159.24,202.46,159.24Z" transform="translate(0 -0.74)"/>
    <path class="cls-4" d="M214.59,159.93s-.71-2-1.49-1.37-.32,1.31-.22,2.14c.19,1.6.56,1.53.8,1.46A2.72,2.72,0,0,0,214.59,159.93Z" transform="translate(0 -0.74)"/>
    <path class="cls-4" d="M214.63,160.24a2.4,2.4,0,0,1-1.53,2.59l.56-1.17Z" transform="translate(0 -0.74)"/>
    <path class="cls-13" d="M182.16,153.94a7.77,7.77,0,0,0-2.55-.09s.1.63,1.49.69A1.11,1.11,0,0,0,182.16,153.94Z" transform="translate(0 -0.74)"/>
    <path class="cls-8" d="M176.61,162.17a8,8,0,0,1-6.17,4.61s-7.88-2.08-3.95-6.66C166.49,160.12,170.37,157.66,176.61,162.17Z" transform="translate(0 -0.74)"/>
    <path class="cls-4" d="M214.63,160.48s.33-.94.35-1.1,0-.25-.18-.13a.75.75,0,0,0-.35.7C214.53,160.23,214.63,160.48,214.63,160.48Z" transform="translate(0 -0.74)"/>
  </g>
  <g>
    <g>
      <path class="cls-22" d="M112.26,76.2a.85.85,0,0,0-.2,1h0a6.89,6.89,0,0,0,2.36,2.22,3.12,3.12,0,0,1,.38.27l.09.06.06,0c1,.82.65,1,2.52,2.66,2.12,1.89,3.59,1.93,4,1.76s-.37-1.15-1.16-2.28l-.12-.16-.31-.46c-.93-1.35-.69-2-.47-4,.18-1.64,3-9.16,3-9.16l-4.07-.6s-1.23,6-2.58,6.91a19.52,19.52,0,0,1-2.23.86l-.14.08A5.14,5.14,0,0,0,112.26,76.2Z" transform="translate(0 -0.74)"/>
      <path class="cls-6" d="M112.26,76.2a.85.85,0,0,0-.2,1h0a7.9,7.9,0,0,0,2.37,2.21l.37.28.09.06.06,0c1,.82.65,1,2.52,2.66,2.12,1.89,3.59,1.93,4,1.76s-.37-1.15-1.16-2.28a9.22,9.22,0,0,1-3.79-2.38c-1.28-1.4-2.14-3.19-3-4.23l-.14.08A5.14,5.14,0,0,0,112.26,76.2Z" transform="translate(0 -0.74)"/>
      <path class="cls-22" d="M145.13,74c.25,1.07,2,.89,4.05.48s1.53.07,4.38-.2,3.71-1.17,3.8-1.53-1.33-.44-2.84-.59l-.57-.06c-1.71-.18-3-1.12-4.51-1.89s-3.66-3.71-3.66-3.71l-3.91.26s2,2.66,2.84,3.82a3.49,3.49,0,0,1,.39,2.28A3.64,3.64,0,0,0,145.13,74Z" transform="translate(0 -0.74)"/>
      <path class="cls-6" d="M149.18,74.51c2-.42,1.53.07,4.38-.2s3.71-1.17,3.8-1.53-1.33-.44-2.84-.59l0,0a9,9,0,0,1-4.08,1.08c-1.94,0-4-.43-5.32-.41a3.64,3.64,0,0,0,0,1.14C145.38,75.1,147.17,74.92,149.18,74.51Z" transform="translate(0 -0.74)"/>
      <path class="cls-9" d="M130.14,52.68l-3.66,8.4-4.77,11a9,9,0,0,1-2.53-.19,12.24,12.24,0,0,1-2.46-1s1.33-11.78,3.8-18.54a11.25,11.25,0,0,1,2.13-3.93C126.48,44.5,130.14,52.68,130.14,52.68Z" transform="translate(0 -0.74)"/>
      <path class="cls-8" d="M126.42,39.34c-2.28-.63-8.58.11-15.11,1.17a1.54,1.54,0,0,1-1.5-.57l-.91-1.29-14.83-1s-3.82,7.42-2.2,13.6c.4,1.51,2.57,3.47,5.88,3.65,9.29.49,15.55-2.26,25.19-5.16,1.67-.5,2.44,2.68,4.18,5.8S143.5,69.39,143.5,69.39a14.9,14.9,0,0,0,3.18-.28,3.11,3.11,0,0,0,1.36-.74S131.82,40.83,126.42,39.34Z" transform="translate(0 -0.74)"/>
      <path class="cls-6" d="M108.31,1.8a18.17,18.17,0,0,0-5.25-1c-5.62-.64-9,6.33-9.2,8.44-.37,3.89-2.78,4.48-6.17,6.92C80.88,21,82.88,26.7,86.6,28.81c2.23,1.27,6.17,0,6.17,0s10.76-5.11,16-7.59C116.72,20.26,113.15,4,108.31,1.8Z" transform="translate(0 -0.74)"/>
      <path class="cls-4" d="M104.39,19.11a8.08,8.08,0,0,1-4.35.11,7,7,0,0,1-2.88-2.93c.75,0,1.58-.59,2.21-4.26l.32.09,5.37,1.65s-.39,1.47-.64,2.87C104.21,17.82,104.09,18.94,104.39,19.11Z" transform="translate(0 -0.74)"/>
      <path class="cls-10" d="M105.06,13.77s-.27,1.05-.57,2.47a5.77,5.77,0,0,1-4.8-4.12Z" transform="translate(0 -0.74)"/>
      <path class="cls-4" d="M105.86,15.23s-7.35-.84-6.66-4.74.19-6.63,4.91-6.25,5.37,2,5.51,3.32S107.79,15.35,105.86,15.23Z" transform="translate(0 -0.74)"/>
      <path class="cls-6" d="M109.35,5.42s-4.7,3.46-7.9,3.74S97,8.56,97,8.56a11,11,0,0,0,3-3.49,2.28,2.28,0,0,1,1.86-1.13C104.2,3.77,108.53,3.69,109.35,5.42Z" transform="translate(0 -0.74)"/>
      <path class="cls-6" d="M106.41,5.11a10.15,10.15,0,0,1,2.07,2.27,6.5,6.5,0,0,1,.24,4s2.45-4.07,1.07-6S106.41,5.11,106.41,5.11Z" transform="translate(0 -0.74)"/>
      <path class="cls-1" d="M110.57,28.35c.56,11.32-.33,10.69-1.69,11.24a9.82,9.82,0,0,1-2.94.55c-4.56.26-12.57-.39-12.88-1.1-1-2.49-.31-3.27-1.19-7.08q-.14-.6-.33-1.32c-.73-2.62-1.45-3.51,1.15-7.71,2.35-3.81,4.8-6.9,5-6.79,6.21,3.15,6.71.5,6.71.5S110.26,22.16,110.57,28.35Z" transform="translate(0 -0.74)"/>
      <path class="cls-8" d="M126.48,61.08l-4.77,11a9,9,0,0,1-2.53-.19,12.24,12.24,0,0,1-2.46-1s1.33-11.78,3.8-18.54Z" transform="translate(0 -0.74)"/>
      <path class="cls-1" d="M104.42,16.64s6.39.93,7.14,3.28l5.16,16.15s-3.25.5-4.75-.78-5.22-11.89-5.22-11.89Z" transform="translate(0 -0.74)"/>
      <path class="cls-7" d="M105.94,40.14c-4.56.26-12.57-.39-12.88-1.1-1-2.49-.31-3.27-1.19-7.08l2.2-5.28s-.36,5.88,1.67,7.43,8.33,3,9.32,4.28A4.55,4.55,0,0,1,105.94,40.14Z" transform="translate(0 -0.74)"/>
      <path class="cls-4" d="M100.72,37.66s4.49-.85,5.22-.51a10.16,10.16,0,0,1,2.72,2c.22.43-1.61-.33-2.21-.46a6.11,6.11,0,0,0-1.91.35,7.38,7.38,0,0,1-3.43.3Z" transform="translate(0 -0.74)"/>
      <path class="cls-1" d="M97.7,16.14s-6,.32-8.13,2.81c-2.94,3.5-8.78,18.43-5.43,20.43,3.77,2.24,17.15.58,17.15.58s.44-1.77-.18-2.63S90.43,35.08,90,34.68s5.81-7.73,5.81-8.92S97.7,16.14,97.7,16.14Z" transform="translate(0 -0.74)"/>
      <path class="cls-4" d="M106.16,38.22a8.25,8.25,0,0,0,1.25,1.16,1.1,1.1,0,0,0,.51.09l-.64-1Z" transform="translate(0 -0.74)"/>
      <path class="cls-4" d="M105.94,37.15l2.74,1.13a.5.5,0,0,1-.45.15,7,7,0,0,1-1.19-.28Z" transform="translate(0 -0.74)"/>
    </g>
    <g>
      <g>
        <polygon class="cls-5" points="107.41 40.23 129.08 40.23 135.6 26.39 113.96 26.39 107.41 40.23"/>
        <polygon class="cls-5" points="129.34 39.69 100.72 39.69 100.72 40.23 129.08 40.23 129.34 39.69"/>
      </g>
      <path class="cls-21" d="M123.61,34.05c.16-.49-.16-.88-.73-.88a1.45,1.45,0,0,0-1.33.88c-.17.48.16.88.73.88A1.47,1.47,0,0,0,123.61,34.05Z" transform="translate(0 -0.74)"/>
    </g>
  </g>
</svg>
