<svg id="Calque_1" data-name="Calque 1" xmlns="http://www.w3.org/2000/svg" viewBox="0 0 250 199.54">
  <defs>
    <style>
      .cls-1 {
        fill: #d5e3f5;
      }

      .cls-2 {
        fill: #adc0e4;
      }

      .cls-3 {
        fill: #7393cc;
      }

      .cls-4 {
        fill: #deebf9;
      }

      .cls-5, .cls-6 {
        fill: #e9f3fb;
      }

      .cls-20, .cls-5 {
        opacity: 0.5;
      }

      .cls-7 {
        fill: #f28f38;
      }

      .cls-8 {
        fill: #fff;
      }

      .cls-9 {
        fill: #f6aa78;
      }

      .cls-10 {
        fill: #203865;
      }

      .cls-11 {
        fill: #f18841;
      }

      .cls-12 {
        fill: #f49c5a;
      }

      .cls-13 {
        fill: #f39253;
      }

      .cls-14 {
        fill: #adcbec;
      }

      .cls-15 {
        fill: #92b1dd;
      }

      .cls-16 {
        fill: #0d4b93;
      }

      .cls-17 {
        fill: #f49d65;
      }

      .cls-18 {
        fill: #1a3760;
      }

      .cls-19 {
        fill: #0b4e8a;
      }

      .cls-21 {
        fill: #b0cded;
      }

      .cls-22 {
        fill: #74b671;
      }

      .cls-23 {
        fill: #9ecd99;
      }

      .cls-24 {
        fill: #fddcbb;
      }

      .cls-25 {
        fill: #234e9b;
      }

      .cls-26 {
        fill: #f49d60;
      }

      .cls-27 {
        fill: #134a96;
      }
       .spin{
         position: absolute
        animation: spin 10s infinite
       
      }
      @keyframes spin {
    from{
      transform: rotate(0deg);
    }
    to{
      transform: rotate(360deg);
    }
}
    </style>
  </defs>
  <title>Sans titre - 7</title>
  <g>
  
    <path class="cls-1 spin" d="M250,58.75a38.85,38.85,0,0,1-.66,7.11A38.41,38.41,0,0,1,242.89,81a41.58,41.58,0,0,1-71.12-6.27,38.43,38.43,0,0,1-2.57-24.36.36.36,0,0,0,0-.1,39.1,39.1,0,0,1,11-19.38,41.27,41.27,0,0,1,4.95-4.08c.84-.59,1.71-1.15,2.6-1.68a41.73,41.73,0,0,1,21.37-5.82c1,0,2.07,0,3.09.11a42,42,0,0,1,4.24.53,41.16,41.16,0,0,1,16,6.42h0a40.72,40.72,0,0,1,7.88,6.92,39.46,39.46,0,0,1,3.33,4.38c.62,1,1.21,1.93,1.75,2.94A38.31,38.31,0,0,1,250,58.75Z" transform="translate(0)"/>
    <g>
      <path class="cls-2" d="M195.26,41.09c-1.63,2.5.68,6.82-4.21,5.64s-7.89-1.7-8.16.92,3.67,2.63,3.67,5.38-1.77,3.67-4.48,2.36-3.5-3.21-6.66-2-5,.39-5.71-2a3.3,3.3,0,0,0-.51-1,.36.36,0,0,0,0-.1,39.1,39.1,0,0,1,11-19.38,41.27,41.27,0,0,1,4.95-4.08c.84-.59,1.71-1.15,2.6-1.68a5.47,5.47,0,0,1,4.09,2.07c2.85,3.41,4.76,1.7,4.08,5.64s.4,4.46,2.71,4.33,5-.13,5.3,1.57S196.89,38.6,195.26,41.09Z" transform="translate(0)"/>
      <path class="cls-2" d="M212.17,64.7s-3.6,1.12-4.55-1.31.14-3-3.06-3.67-3.46-2.82-5.5-2.56-1,1.05-3.4,2.76-4.55.91-4.48,4.06,3.6,3.64,4.31,5.71-.5,3,1,4.53,4.39.88,3.06,3-3.36,3.83-2.34,7.18.3,3.54,2,5.9,5.09,3.15,5.6,1.57-2.34-3.64-1.43-5.21,2.45-.49,3.06-2.85,3.09-2.36,3.3-4-3-4.14-1.77-5.19,3.67,1.91,5.57-.72.61-4.72,2.58-7.21S213.53,63.26,212.17,64.7Z" transform="translate(0)"/>
      <path class="cls-2" d="M250,58.75a38.85,38.85,0,0,1-.66,7.11A38.41,38.41,0,0,1,242.89,81a4.9,4.9,0,0,1-3.27-.08c-5.09-2-1.32-7.29.72-9.94s-3.16-1.48-6.93-3.94.4-9.05-3.47-8-8.56,2.46-10.8-1.18,2-4.23.1-7.28,1.12-4.82,5-5.11,3.37-3,8.16-3.35,4.69,5.51,10,5.12,5.07.78,5.07.78a2.47,2.47,0,0,1,1.1.23A38.23,38.23,0,0,1,250,58.75Z" transform="translate(0)"/>
      <path class="cls-2" d="M245.43,40.6c-4.41,2.07-6.18-3.56-9.94-1.87s-3.14-1.57-6.13-3.67-9,1.7-8.69-1.58,4.75-2.36,5.7-5,5.3-2,5.3-2a3,3,0,0,1,.79-.17h0a40.72,40.72,0,0,1,7.88,6.92,39.46,39.46,0,0,1,3.33,4.38C244.3,38.61,244.89,39.59,245.43,40.6Z" transform="translate(0)"/>
      <path class="cls-2" d="M208.3,29.29s2.31-3.22-1.36-4.17-3.6.29-6.45,0-4,1.84-1.84,4.17,3.88,6.79,5.81,4.41S206,29.52,208.3,29.29Z" transform="translate(0)"/>
    </g>
  </g>
  <path class="cls-2" d="M223.8,52.77V175.56a3.76,3.76,0,0,1-3.59,3.89H36.7a3.76,3.76,0,0,1-3.59-3.89V52.77a3.75,3.75,0,0,1,3.59-3.89H220.21A3.75,3.75,0,0,1,223.8,52.77Z" transform="translate(0)"/>
  <g>
    <path class="cls-3" d="M223.8,52.34v9.27H33.11V52.34a3.52,3.52,0,0,1,3.59-3.46H220.21A3.52,3.52,0,0,1,223.8,52.34Z" transform="translate(0)"/>
    <g>
      <path class="cls-4" d="M39,55.24a1.67,1.67,0,1,1,1.66,1.61A1.63,1.63,0,0,1,39,55.24Z" transform="translate(0)"/>
      <path class="cls-4" d="M45.53,55.24a1.67,1.67,0,1,1,1.66,1.61A1.63,1.63,0,0,1,45.53,55.24Z" transform="translate(0)"/>
      <path class="cls-4" d="M52.27,55.24a1.67,1.67,0,1,1,1.67,1.61A1.64,1.64,0,0,1,52.27,55.24Z" transform="translate(0)"/>
    </g>
  </g>
  <rect class="cls-5" x="135.71" y="141.22" width="20.11" height="19.42"/>
  <g>
    <polygon class="cls-3" points="137.22 158.42 143.16 148.08 147.53 153.83 149.71 151.53 154.34 158.42 137.22 158.42"/>
    <path class="cls-3" d="M146,146.59a1.54,1.54,0,1,1,1.54,1.49A1.51,1.51,0,0,1,146,146.59Z" transform="translate(0)"/>
  </g>
  <rect class="cls-5" x="135.71" y="105.68" width="50.14" height="28.06"/>
  <polygon class="cls-3" points="155.13 112.52 155.13 126.9 166.44 119.71 155.13 112.52"/>
  <path class="cls-6" d="M208.8,84.79a11.43,11.43,0,0,1-3.42,8.13,11.68,11.68,0,0,1-8.23,3.38H61.46c-6.93,0-12.6-5.18-12.6-11.51a11,11,0,0,1,3.7-8.13,13.17,13.17,0,0,1,8.9-3.38H197.15A11.61,11.61,0,0,1,208.8,84.79Z" transform="translate(0)"/>
  <path class="cls-7" d="M208.8,84.79a11.43,11.43,0,0,1-3.42,8.13,11.68,11.68,0,0,1-8.23,3.38H172.6v-23h24.55A11.61,11.61,0,0,1,208.8,84.79Z" transform="translate(0)"/>
  <g>
    <path class="cls-8" d="M193.26,89a7,7,0,0,1-.91-.06,6.07,6.07,0,0,1-4-2.31,5.74,5.74,0,0,1,1.27-8.21h0a6.22,6.22,0,0,1,8.5,1.22,5.75,5.75,0,0,1-1.27,8.21A6.15,6.15,0,0,1,193.26,89Zm-3-9.8A4.79,4.79,0,0,0,189.16,86a5.2,5.2,0,0,0,7.1,1,4.79,4.79,0,0,0,1.06-6.85,5.2,5.2,0,0,0-7.1-1Z" transform="translate(0)"/>
    <polygon class="cls-8" points="182.39 91.46 181.8 90.69 188.46 85.92 189.06 86.7 182.39 91.46"/>
    <path class="cls-8" d="M179.78,92.73h0a.84.84,0,0,1,.19-1.21l3.92-2.8a.9.9,0,0,1,1.25.18h0a.83.83,0,0,1-.19,1.2L181,92.91A.92.92,0,0,1,179.78,92.73Z" transform="translate(0)"/>
  </g>
  <g>
    <g>
      <path class="cls-9" d="M89,68.92a.84.84,0,0,0-.16.94h0a5.93,5.93,0,0,0,1.91,2l.3.24.07.06,0,0c.84.75.53.92,2,2.43,1.72,1.73,2.9,1.76,3.24,1.6s-.29-1-.93-2.08a1.3,1.3,0,0,0-.1-.15l-.25-.41c-.75-1.24-.56-1.82-.38-3.66.15-1.5,2.42-8.36,2.42-8.36l-3.3-.55s-1,5.47-2.08,6.31c-.59.45-1.24.45-1.8.78l-.12.07A4.72,4.72,0,0,0,89,68.92Z" transform="translate(0)"/>
      <path class="cls-10" d="M89,68.92a.84.84,0,0,0-.16.94h0a6.85,6.85,0,0,0,1.91,2l.3.25.07.06,0,0c.84.75.53.92,2,2.43,1.72,1.73,2.9,1.76,3.24,1.6s-.29-1-.93-2.08A7.11,7.11,0,0,1,92.45,72c-1-1.22-1.68-2.79-2.36-3.75l-.19,0A4.72,4.72,0,0,0,89,68.92Z" transform="translate(0)"/>
      <path class="cls-9" d="M115.55,67c.2,1,1.65.82,3.27.43s1.23.08,3.53-.17,3-1.07,3.08-1.4-1.08-.4-2.3-.54l-.46,0c-1.38-.17-2.39-1-3.64-1.73s-3-3.39-3-3.39l-3.16.24s1.65,2.43,2.29,3.49a3.5,3.5,0,0,1,.31,2.07A4.11,4.11,0,0,0,115.55,67Z" transform="translate(0)"/>
      <path class="cls-10" d="M118.82,67.38c1.62-.38,1.23.08,3.53-.17s3-1.07,3.08-1.4-1.08-.4-2.3-.54v0a6.64,6.64,0,0,1-3.3,1c-1.56,0-3.22-.39-4.3-.38a4.11,4.11,0,0,0,0,1C115.75,67.93,117.2,67.77,118.82,67.38Z" transform="translate(0)"/>
      <path class="cls-11" d="M103.45,47.44l-3,7.67-3.86,10a6.34,6.34,0,0,1-2-.18,8.94,8.94,0,0,1-2-.93s1.07-10.76,3.07-16.93A10.8,10.8,0,0,1,97.4,43.5C100.5,40,103.45,47.44,103.45,47.44Z" transform="translate(0)"/>
      <path class="cls-12" d="M100.45,35.26c-1.68-.52-6.07,0-10.82.82a3.26,3.26,0,0,1-3.33-1.45h0l-12-.91s-3.95,8.46-1.79,13.85a2.11,2.11,0,0,0,2.09,1.3h9.55c6,0,12.6-3.94,13.46-4.11,1.41-.27,2,2.45,3.38,5.3s13.22,12.64,13.22,12.64a10.8,10.8,0,0,0,2.57-.25,2.53,2.53,0,0,0,1.1-.68S104.81,36.62,100.45,35.26Z" transform="translate(0)"/>
      <path class="cls-10" d="M85,.69A4.36,4.36,0,0,0,82.75.11a6.7,6.7,0,0,1-1.1-.06C77.08-.6,74.32,5.8,74.16,7.74c-.3,3.55-2.24,4.1-5,6.32-5.5,4.46-3.89,9.65-.88,11.58,1.8,1.15,5,0,5,0s8.7-4.67,13-6.93C92.62,17.83,87.6,2.16,85,.69Z" transform="translate(0)"/>
      <path class="cls-9" d="M82.66,16.78a5.81,5.81,0,0,1-3.51.1,6,6,0,0,1-2.32-2.68c.6,0,1.27-.54,1.78-3.89l.26.09,4.33,1.5s-.31,1.35-.51,2.63C82.51,15.6,82.42,16.63,82.66,16.78Z" transform="translate(0)"/>
      <path class="cls-13" d="M83.2,11.9s-.17.73-.42,2.08a4.81,4.81,0,0,1-3.91-3.58Z" transform="translate(0)"/>
      <path class="cls-9" d="M83.85,13.24s-5.93-.77-5.38-4.33.16-6.06,4-5.72,4.34,1.81,4.45,3S85.41,13.35,83.85,13.24Z" transform="translate(0)"/>
      <path class="cls-10" d="M86.68,4.28s-3.8,3.16-6.39,3.41-3.56-.55-3.56-.55A9.58,9.58,0,0,0,79.17,4a1.83,1.83,0,0,1,1.5-1C82.52,2.77,86,2.7,86.68,4.28Z" transform="translate(0)"/>
      <path class="cls-10" d="M84.3,4A9,9,0,0,1,86,6.06a6.75,6.75,0,0,1,.2,3.69s2-3.72.86-5.52A1.61,1.61,0,0,0,84.3,4Z" transform="translate(0)"/>
      <path class="cls-14" d="M87.65,25.22c-.18,11.59-.05,9.17-1.37,10.27a5.16,5.16,0,0,1-2.37.49c-3.69.24-10.16-.35-10.4-1-.85-2.27-.25-3-1-6.46-.07-.37-.17-.77-.27-1.2-.59-2.39-1.17-3.21.93-7,1.9-3.47,3.88-6.3,4.06-6.19,5,2.87,5.42.46,5.42.46S87.74,19.56,87.65,25.22Z" transform="translate(0)"/>
      <path class="cls-12" d="M100.49,55.11l-3.86,10a6.34,6.34,0,0,1-2-.18,8.94,8.94,0,0,1-2-.93s1.07-10.76,3.07-16.93Z" transform="translate(0)"/>
      <path class="cls-14" d="M82.69,14.53s5.16.84,5.76,3,2.6,15.16,2.6,15.16-1.46,1.37-2.67.2S84.57,20.7,84.57,20.7Z" transform="translate(0)"/>
      <path class="cls-15" d="M83.91,36c-3.69.24-10.16-.35-10.4-1-.85-2.27-.25-3-1-6.46l1.78-4.82s-.3,5.37,1.34,6.79,6.73,2.73,7.53,3.91A4.49,4.49,0,0,1,83.91,36Z" transform="translate(0)"/>
      <path class="cls-9" d="M79.69,33.72s3.63-.78,4.22-.47a8.64,8.64,0,0,1,2.2,1.84c.17.4-1.31-.3-1.79-.42a4.47,4.47,0,0,0-1.55.32,5.33,5.33,0,0,1-2.76.27Z" transform="translate(0)"/>
      <path class="cls-14" d="M77.26,14.06s-4.87.29-6.56,2.56c-2.38,3.2-7.1,16.84-4.4,18.66,3,2,13.85.54,13.85.54a4.07,4.07,0,0,0-.14-2.4c-.5-.79-8.63-2.06-9-2.42s4.7-7.07,4.7-8.15S77.26,14.06,77.26,14.06Z" transform="translate(0)"/>
      <path class="cls-9" d="M84.08,34.23a6.71,6.71,0,0,0,1,1.06.86.86,0,0,0,.41.09l-.51-.9Z" transform="translate(0)"/>
      <path class="cls-9" d="M83.91,33.25l2.21,1a.4.4,0,0,1-.37.14,5.21,5.21,0,0,1-1-.26Z" transform="translate(0)"/>
    </g>
    <g>
      <polygon class="cls-10" points="102.8 35.7 79.69 35.69 79.69 36.18 102.6 36.19 102.8 35.7"/>
      <polygon class="cls-10" points="85.09 36.19 102.6 36.19 107.87 23.55 90.39 23.55 85.09 36.19"/>
      <path class="cls-8" d="M98.18,29.87a.59.59,0,0,0-.59-.81,1.18,1.18,0,0,0-1.07.81.58.58,0,0,0,.59.8A1.18,1.18,0,0,0,98.18,29.87Z" transform="translate(0)"/>
    </g>
  </g>
  <rect class="cls-7" x="53.42" y="108.3" width="33.99" height="2.78" rx="1.39"/>
  <g>
    <path class="cls-3" d="M70,120.66H54.41a1,1,0,0,1-1-1h0a1,1,0,0,1,1-.95H70a1,1,0,0,1,1,.95h0A1,1,0,0,1,70,120.66Z" transform="translate(0)"/>
    <g>
      <rect class="cls-3" x="53.42" y="114.77" width="29.44" height="1.9" rx="0.95"/>
      <rect class="cls-3" x="85.54" y="114.77" width="27.49" height="1.9" rx="0.95"/>
      <path class="cls-3" d="M89.45,120.66H73.86a1,1,0,0,1-1-1h0a1,1,0,0,1,1-.95H89.45a1,1,0,0,1,1,.95h0A1,1,0,0,1,89.45,120.66Z" transform="translate(0)"/>
    </g>
  </g>
  <rect class="cls-7" x="91.91" y="108.3" width="33.99" height="2.78" rx="1.39"/>
  <rect class="cls-7" x="53.42" y="133.22" width="33.99" height="2.78" rx="1.39"/>
  <g>
    <path class="cls-3" d="M70,145.58H54.41a1,1,0,0,1-1-1h0a1,1,0,0,1,1-.95H70a1,1,0,0,1,1,.95h0A1,1,0,0,1,70,145.58Z" transform="translate(0)"/>
    <g>
      <rect class="cls-3" x="53.42" y="139.7" width="29.44" height="1.9" rx="0.95"/>
      <rect class="cls-3" x="85.54" y="139.7" width="27.49" height="1.9" rx="0.95"/>
      <path class="cls-3" d="M89.45,145.58H73.86a1,1,0,0,1-1-1h0a1,1,0,0,1,1-.95H89.45a1,1,0,0,1,1,.95h0A1,1,0,0,1,89.45,145.58Z" transform="translate(0)"/>
    </g>
  </g>
  <rect class="cls-7" x="91.91" y="133.22" width="33.99" height="2.78" rx="1.39"/>
  <g>
    <path class="cls-9" d="M35.94,122.6s.36-.77.59-1.14,1.22-1.44,1.38-1.19.84,1.87.49,2.33,0,1.26-1.75,1.74Z" transform="translate(0)"/>
    <path class="cls-15" d="M16.23,117.72s9.08,7.31,12.62,6.64a71.42,71.42,0,0,0,7-1.94l.85,2.1s-3.81,5-7.79,5A23.31,23.31,0,0,1,18.13,127Z" transform="translate(0)"/>
    <path class="cls-16" d="M.3,194.91s.26,4.11,1.09,4.17H5.56l5.19,0a1.65,1.65,0,0,0-1.55-1.46c-1.52-.25-4.06-1.28-5-3.22S.3,194.91.3,194.91Z" transform="translate(0)"/>
    <path class="cls-12" d="M0,195.2a11.38,11.38,0,0,0,2.81.5,10.7,10.7,0,0,0,2.62-.36,68,68,0,0,1,1.93-8.88c.86-3.2,2.08-7.31,3.82-12.43,4.81-14.13,6.28-22.4,6.41-23.18a.28.28,0,0,0,0-.06h0L2.79,144.51s1.83,19.48-.5,27a29.59,29.59,0,0,0-.85,3.58C0,183.17,0,195.2,0,195.2Z" transform="translate(0)"/>
    <path class="cls-11" d="M7.36,186.46c.86-3.2,2.08-7.31,3.82-12.43,4.81-14.13,6.28-22.4,6.41-23.18a.15.15,0,0,0,0-.07L2.79,144.51s1.83,19.48-.5,27C2,172.51,7.36,186.46,7.36,186.46Z" transform="translate(0)"/>
    <path class="cls-16" d="M11.85,194.91s.27,4.11,1.09,4.17h4.17l5.19,0a1.64,1.64,0,0,0-1.55-1.46c-1.52-.25-4.05-1.28-5-3.22S11.85,194.91,11.85,194.91Z" transform="translate(0)"/>
    <path class="cls-12" d="M20.24,145a196.75,196.75,0,0,1-2.07,28.12c-2.26,15.5-1.5,22.08-1.5,22.08a14.62,14.62,0,0,1-2.18.53,10,10,0,0,1-3.23-.36S8,179.84,9,172.08s-4.44-26.62-4.44-26.62Z" transform="translate(0)"/>
    <path class="cls-9" d="M9.75,115.43l2.89,1.82,2.63-.71a5.86,5.86,0,0,0,.61-3.05,18,18,0,0,0-.1-2l-3.9-1.66-1.45-.61s.11,1.15.13,1.31A9.37,9.37,0,0,1,9.75,115.43Z" transform="translate(0)"/>
    <path class="cls-14" d="M20.31,148.48c-3.6,3.35-17.2,2.78-18-.91s.92-31.42,7.06-33.16c1.27-.36,8.08,1.76,8.08,1.76a40.45,40.45,0,0,1,1.77,6.14c.14.67.53,7.75.83,14.38.14,3.1.26,6.11.32,8.3A25.36,25.36,0,0,1,20.31,148.48Z" transform="translate(0)"/>
    <path class="cls-17" d="M10.85,110.56c.79,1.29,3.56,2.41,5,2.93a18,18,0,0,0-.1-2l-3.9-1.66C11,109.79,10.5,110,10.85,110.56Z" transform="translate(0)"/>
    <path class="cls-9" d="M17.25,111.24s-6.28,1.89-7.44-1.91-2.75-6.1,1.21-7.47,5.19-.14,5.89,1S18.85,110.65,17.25,111.24Z" transform="translate(0)"/>
    <path class="cls-18" d="M16.67,102.53s-.41,4.41-1.35,4.22-2-.6-1.85.73-.92,3.61-2.28,3.61c-2.92,0-6.1-7.26-5.3-8.63C8.2,98.5,20,97.7,16.67,102.53Z" transform="translate(0)"/>
    <path class="cls-15" d="M15.74,114.5c-.08,0-4.67-2-5.21-1.85s-1.2,1.76-1.2,1.76l8.08,1.76A4,4,0,0,0,15.74,114.5Z" transform="translate(0)"/>
    <g>
      <path class="cls-19" d="M44.33,136l-25.74,23.4c-.51.46-1.14.6-1.41.32l-.87-.89c-.28-.28-.09-.88.42-1.34l25.74-23.4c.5-.46,1.14-.6,1.41-.32l.87.89C45,134.92,44.83,135.52,44.33,136Z" transform="translate(0)"/>
      <path class="cls-3" d="M29.88,149.11,18.59,159.38c-.51.46-1.14.6-1.41.32l-.87-.89c-.28-.28-.09-.88.42-1.34L28,147.2Z" transform="translate(0)"/>
      <path class="cls-19" d="M38.41,127.15a19.28,19.28,0,0,0,5.48,8.5,20.7,20.7,0,0,0,28.52-.84,19,19,0,0,0-.56-27.24c-.1-.1-.2-.2-.31-.29a20.69,20.69,0,0,0-28.52.84A19,19,0,0,0,38.41,127.15Zm5.77-18a19.05,19.05,0,0,1,26.27-.77,17.51,17.51,0,0,1,.8,25.36A18.7,18.7,0,0,1,62,138.92a19,19,0,0,1-17-4.39A17.51,17.51,0,0,1,44.18,109.17Z" transform="translate(0)"/>
      <g class="cls-20">
        <path class="cls-21" d="M71.25,133.76A18.7,18.7,0,0,1,62,138.92a19,19,0,0,1-17-4.39,17.51,17.51,0,0,1-.8-25.36,19.05,19.05,0,0,1,26.27-.77A17.51,17.51,0,0,1,71.25,133.76Z" transform="translate(0)"/>
      </g>
    </g>
    <path class="cls-15" d="M20.33,145c-14.19-9.75-13-22.77-13-22.77C12.51,125,17.65,131.28,20,136.69,20.15,139.79,20.27,142.8,20.33,145Z" transform="translate(0)"/>
    <g>
      <path class="cls-9" d="M34.33,140.55a3.84,3.84,0,0,0,1.81-1.08s.42,0-.07.91l-.21.39a.08.08,0,0,0,.08.12,10.55,10.55,0,0,1,2.27.05c.15,0,.2.39.19.54a1.32,1.32,0,0,1-.3.93,4.93,4.93,0,0,1-1.79.91,5.61,5.61,0,0,1-2.77-.34l-.91-.4.28-1.63.23,0C33.5,141.07,34,140.64,34.33,140.55Z" transform="translate(0)"/>
      <path class="cls-14" d="M11.72,116.17S-1,118.52,15.47,136.33c2.64,2.85,16.89,6.56,16.89,6.56s1.45-1.18.72-2.15c0,0-9.81-6.88-12-8-1-.49-3.77-11-5.35-13.5A7.17,7.17,0,0,0,11.72,116.17Z" transform="translate(0)"/>
    </g>
    <path class="cls-9" d="M36.29,122.82a6.7,6.7,0,0,0,.5-1.18,6.29,6.29,0,0,1,.82-1.79c.08-.09.37,0,.4.38a1.9,1.9,0,0,1-.2.78,8.45,8.45,0,0,0-.27,1.54C37.34,123.17,36.29,122.82,36.29,122.82Z" transform="translate(0)"/>
  </g>
  <g>
    <polygon class="cls-10" points="206.69 99.33 199.47 100.96 195.9 107.22 193.18 92.94 206.69 99.33"/>
    <polygon class="cls-10" points="203.69 105.45 202.63 106.22 198.03 100.35 199.08 99.58 203.69 105.45"/>
  </g>
  <g>
    <g>
      <g>
        <path class="cls-22" d="M182.9,165.35s3-3.38.16-5.51a8,8,0,0,0-3.73-1.09s2.39,3.83,1.62,4.21-2.34-4.45-2.34-4.45-4.67-.43-6.17.28c0,0,4,3.14,3.16,3.33s-5.16-2.89-5.16-2.89-4.34.72-4.1,3.28,1.74,3.35,2.4,3.28,4.5-1.5,4.59-1-2.23,2.23-3.85,2.31c0,0,3.07,3.25,5.11,2.3s2.2-2.44,3.47-3,2.35-.57,1.82,0-2.81,1.13-3.54,2.37-1.37,2.08.74,1.77,5.53-1.81,5.67-3.51Z" transform="translate(0)"/>
        <g>
          <path class="cls-22" d="M168.47,162.57s11.81-.47,14.43,2.78a8.19,8.19,0,0,0,2.36,3.18l.28.72s-2.06-2.07-2.79-2.19C182.75,167.06,183.88,163,168.47,162.57Z" transform="translate(0)"/>
          <path class="cls-22" d="M185.26,168.53a7.09,7.09,0,0,1,2.72,5l-.46,0s-.82-3.34-2.28-4.64S185.26,168.53,185.26,168.53Z" transform="translate(0)"/>
        </g>
      </g>
      <g>
        <path class="cls-23" d="M198.72,156.43s-4.77-2.56-2.56-6.06a9.49,9.49,0,0,1,3.68-2.71s-1,5.22,0,5.33.68-5.88.68-5.88,5-2.35,7-2.17c0,0-3.09,5.1-2.08,5s4.5-5.28,4.5-5.28,5.14-.94,6,2-.49,4.42-1.25,4.6-5.65.14-5.53.76,3.44,1.58,5.28,1c0,0-2,4.85-4.69,4.61s-3.49-1.82-5.15-1.94-2.85.31-2,.74,3.62.13,5,1.22,2.42,1.76-.05,2.26-6.93.2-7.82-1.63Z" transform="translate(0)"/>
        <g>
          <path class="cls-22" d="M213.56,147.56s-13.33,4.21-14.84,8.87a9.53,9.53,0,0,1-1.25,4.48v.92s1.39-3.13,2.15-3.56C199.62,158.27,196.62,154.23,213.56,147.56Z" transform="translate(0)"/>
          <path class="cls-22" d="M197.47,160.91a8.23,8.23,0,0,0-.86,6.69l.53-.14s-.53-4,.54-6.08S197.47,160.91,197.47,160.91Z" transform="translate(0)"/>
        </g>
      </g>
      <g>
        <path class="cls-23" d="M191.14,152.9s6.26-3.41,3.32-8c0,0-2.36-2.82-4.87-3.54,0,0,1.36,6.87,0,7s-.94-7.75-.94-7.75-6.63-3-9.22-2.8c0,0,4.12,6.69,2.78,6.53s-6-6.93-6-6.93-6.79-1.19-7.86,2.69.69,5.82,1.69,6.06,7.45.14,7.29.95-4.52,2.11-6.95,1.39c0,0,2.7,6.38,6.22,6s4.6-2.43,6.77-2.6,3.77.39,2.68,1-4.77.2-6.52,1.65-3.17,2.34.09,3,9.13.22,10.29-2.21Z" transform="translate(0)"/>
        <g>
          <path class="cls-22" d="M171.51,141.33s17.6,5.44,19.63,11.57a12.5,12.5,0,0,0,1.69,5.9V160s-1.85-4.12-2.86-4.68C190,155.33,193.89,150,171.51,141.33Z" transform="translate(0)"/>
          <path class="cls-22" d="M192.83,158.8a10.88,10.88,0,0,1,1.19,8.81l-.69-.18s.65-5.33-.77-8S192.83,158.8,192.83,158.8Z" transform="translate(0)"/>
        </g>
      </g>
    </g>
    <g>
      <path class="cls-12" d="M241.4,199.39H177.06c-9-9.91-6.6-23.29,5.3-34.58,1.5-1.42,4.37-2.42,7.47-3.13A86.28,86.28,0,0,1,202.06,160a45.38,45.38,0,0,0,5.47-5.06c6.36-7.43,11.77-6.79,11.77-6.79,6.48-1.22,12-1.58,16.11.62h0c3.79,2.05,6.37,6.29,7.33,14.09.18,1.47.3,3.07.37,4.81.23,6.33,1.53,12,2.29,16.72h0C246.52,191.34,247.3,196.59,241.4,199.39Z" transform="translate(0)"/>
      <path class="cls-11" d="M232.19,156.76c-3.93,2.07-4.36,8.88-10.52,10.64s-16.61,1.6-22.53,7.81c-5.72,6-12-9.25-9.31-13.53A86.28,86.28,0,0,1,202.06,160a45.38,45.38,0,0,0,5.47-5.06c6.36-7.43,11.77-6.79,11.77-6.79,6.48-1.22,12-1.58,16.11.62h0C239.92,153.32,236.13,154.69,232.19,156.76Z" transform="translate(0)"/>
      <g>
        <path class="cls-24" d="M189.62,186.22s1.14,2.9.9,4,.16,3.16-.3,4.1-1.26,2.29-.48,2.63c.3.13,3.75-2.46,3.94-3.23s.35-3,1-4.24a1.8,1.8,0,0,0-.85-2.66c-1-.45-2.3-2.9-2.3-2.9Z" transform="translate(0)"/>
        <path class="cls-10" d="M208.05,158.72S189.23,157.6,186.8,160s1.61,27.52,1.61,27.52,5.1.14,5.5-1.16c0,0-.95-12.1-.16-14.19a11.19,11.19,0,0,0,.29-5s10,1.44,13.16.71S208.05,158.72,208.05,158.72Z" transform="translate(0)"/>
        <path class="cls-9" d="M212.61,145.38s-2.77,6.25-4.13,6.92-6.25,6.1-7.3,6,1.09,1.11,1.09,1.11l9.2-4.34a17.86,17.86,0,0,0,3.48-6.52C215.31,146.44,212.61,145.38,212.61,145.38Z" transform="translate(0)"/>
        <path class="cls-24" d="M186.15,191s-1.08,2.92-2,3.6-2,2.51-3,2.94-2.5,1-2.13,1.72c.14.28,4.51.44,5.17,0a19.79,19.79,0,0,1,3.6-2.62,1.79,1.79,0,0,0,1.12-2.56c-.43-.94.19-3.65.19-3.65Z" transform="translate(0)"/>
        <path class="cls-18" d="M218.28,142.61c-.4-.45,9.8.66,11.15,5.69,0,0,7.83-6,.65-11-2.49-1.74-2.74-3.6-3.1-5.3s-2.84-6.57-7.15-4.15a5.77,5.77,0,0,0-3.21,1C213.79,131.29,210.71,146.34,218.28,142.61Z" transform="translate(0)"/>
        <path class="cls-25" d="M216.3,159.6s-20.47,2-22.27,4-8.86,28.24-8.86,28.24a4.53,4.53,0,0,0,4,.08s5.41-8.9,7.81-11.7,3.29-11.42,3.68-11.5,13.23,1.72,17.64-1.55S216.3,159.6,216.3,159.6Z" transform="translate(0)"/>
        <path class="cls-24" d="M227.69,141.67a21.93,21.93,0,0,0-11.07-1.14,4.25,4.25,0,0,0-3.31,2c-1.28,2-1.88,3.12-1.88,3.12s.13.94,1.87,1.69c-.47,1.69.44,4.63-.4,5.77s-6,4-6.3,5.55c-.47,2.9,8.9,8.14,11.69,7.58C226.32,164.66,231.77,143.88,227.69,141.67Z" transform="translate(0)"/>
        <path class="cls-18" d="M224.93,135.71a10.65,10.65,0,0,0,1.08-3.33c.1-1.07-.84-4.93-4.85-4a5.68,5.68,0,0,0-2.21,1c-.83.66-2,2-.22,5.29l.48,1.12Z" transform="translate(0)"/>
        <g>
          <path class="cls-9" d="M219.43,141.88c-.4.41-.24,1.78,1.65,1.68,1.25-.07,3.92-1.56,3.67-2.58a12.45,12.45,0,0,1-1.31-4.65l-.22.06-3.8,1s.18,1.17.27,2.28A4.55,4.55,0,0,1,219.43,141.88Z" transform="translate(0)"/>
          <path class="cls-26" d="M219.42,137.42s.18,1.17.27,2.28c2.16-.23,3.15-2.22,3.53-3.31Z" transform="translate(0)"/>
          <path class="cls-9" d="M219.34,139.12s5-1.21,4.14-4.19-.74-5.14-3.95-4.49-3.51,1.94-3.49,3S218,139.36,219.34,139.12Z" transform="translate(0)"/>
          <path class="cls-18" d="M217.25,131s1.67,3.07,4.82,3.4a2.75,2.75,0,0,1,2.35,1.37,26.9,26.9,0,0,0-1.48-5.4S217.81,129,217.25,131Z" transform="translate(0)"/>
          <path class="cls-18" d="M217.82,131.36a8.17,8.17,0,0,0-1.42,1.83c-.5,1.12.47,3.48.87,4,0,0-2.31-3.79-1.54-5.44A1.18,1.18,0,0,1,217.82,131.36Z" transform="translate(0)"/>
        </g>
        <path class="cls-9" d="M202.66,159s-1,1-1.11,1.07a7.47,7.47,0,0,1-1.88.22c-.4.1-.34-.14,0-.34s1-.12.72-.19a8.21,8.21,0,0,0-2.5-.2,2.28,2.28,0,0,1-1.77-.14,8,8,0,0,1,2.82-1.11c.64,0,2.48-.06,2.48-.06Z" transform="translate(0)"/>
        <path class="cls-9" d="M229.37,143.54S235.55,157,233.83,159s-13.58-.42-13.58-.42l.37-1.25s8.73-.51,9.36-.68c.89-.25-4.43-9.68-4.43-9.68Z" transform="translate(0)"/>
        <path class="cls-24" d="M227.07,141.45c.15,0,2,.58,3.32,3.12s1.78,3.69,1.78,3.69-5.77,4.32-8.07,2.73S225,141.39,227.07,141.45Z" transform="translate(0)"/>
        <path class="cls-9" d="M221.64,157.23s-1-.62-1.4-1a5.07,5.07,0,0,0-2.72-.39c0,.23,1.35.54,1.5.76s1,1.17,1.68,1.16A1,1,0,0,0,221.64,157.23Z" transform="translate(0)"/>
        <g>
          <path class="cls-27" d="M218.93,159.25l-2.66-.36a1.18,1.18,0,0,1-.91-.72l-1.47-5c-.1-.34.15-.57.54-.51l2.67.36a1.18,1.18,0,0,1,.9.72l1.47,5C219.57,159.08,219.33,159.31,218.93,159.25Z" transform="translate(0)"/>
          <path class="cls-10" d="M218.37,159.18l-2.66-.37a1.14,1.14,0,0,1-.9-.71l-1.47-5c-.1-.34.14-.58.54-.52l2.66.36a1.17,1.17,0,0,1,.9.72l1.47,5C219,159,218.77,159.23,218.37,159.18Z" transform="translate(0)"/>
          <path class="cls-27" d="M213.79,153.2c0-.14.06-.24.23-.22a.5.5,0,0,1,.37.3c0,.14-.06.24-.22.22A.52.52,0,0,1,213.79,153.2Z" transform="translate(0)"/>
        </g>
        <path class="cls-9" d="M220.25,158.54a17.59,17.59,0,0,1-2.25-.08c-.45-.1-1.61-1.48-1.3-1.83s1.27.18,1.78.17,1.85-.71,2.76.75C221.34,157.72,220.25,158.54,220.25,158.54Z" transform="translate(0)"/>
      </g>
      <path class="cls-12" d="M228,161.85s-1.94,1.76-10,2-18.69,8.91-18.79,11.35,16.34,6.16,16.59,5.81,10.42-8.79,10.42-8.79Z" transform="translate(0)"/>
      <path class="cls-11" d="M245.4,184.43c-9-10.87-27.57,4-32.37,3.54-4.41-.39,8.61-15.26,24.75-17.47,6.52-.89,5-7.4,5-7.6.18,1.47.3,3.07.37,4.81C243.34,174,244.64,179.67,245.4,184.43Z" transform="translate(0)"/>
    </g>
  </g>
  <g>
    <polygon class="cls-15" points="141.85 34.66 159.43 38.17 148.16 29.72 147.41 32.16 143.04 32.66 141.85 34.66"/>
    <polygon class="cls-24" points="159.43 38.17 145.15 29.93 130.73 28.36 159.43 38.17"/>
    <polygon class="cls-24" points="148.16 29.72 159.43 38.17 151.1 25.52 148.16 29.72"/>
  </g>
  <g>
    <polygon class="cls-15" points="31.39 82.42 13.81 85.93 25.08 77.48 25.84 79.92 30.2 80.42 31.39 82.42"/>
    <polygon class="cls-24" points="13.81 85.93 28.1 77.69 42.52 76.12 13.81 85.93"/>
    <polygon class="cls-24" points="25.08 77.48 13.81 85.93 22.14 73.28 25.08 77.48"/>
  </g>
  <g>
    <path class="cls-3" d="M60.19,87.32l.52-.59a2.26,2.26,0,0,0,1.53.61c.53,0,.87-.23.87-.6s-.2-.52-1.1-.72-1.62-.53-1.62-1.41.69-1.36,1.66-1.36a2.69,2.69,0,0,1,1.76.59l-.45.62A2.24,2.24,0,0,0,62,84c-.51,0-.8.24-.8.57s.23.52,1.16.73,1.56.6,1.56,1.39-.72,1.4-1.74,1.4A3,3,0,0,1,60.19,87.32Z" transform="translate(0)"/>
    <path class="cls-3" d="M64.67,86.24a1.78,1.78,0,0,1,1.79-1.85,1.74,1.74,0,0,1,1.76,1.91s0,.18,0,.23h-2.7a1,1,0,0,0,1.06.89,1.32,1.32,0,0,0,1-.42l.49.42a1.86,1.86,0,0,1-1.5.67A1.8,1.8,0,0,1,64.67,86.24ZM67.39,86a.94.94,0,0,0-.94-.93,1,1,0,0,0-1,.93Z" transform="translate(0)"/>
    <path class="cls-3" d="M71.31,88v-.44a1.5,1.5,0,0,1-1.19.51A1.16,1.16,0,0,1,68.82,87c0-.78.63-1.16,1.48-1.16a3.14,3.14,0,0,1,1,.15v-.07c0-.49-.32-.75-.91-.75a2.48,2.48,0,0,0-1,.22l-.23-.65a3.14,3.14,0,0,1,1.39-.3c1.09,0,1.61.55,1.61,1.5V88Zm0-1.48a2.22,2.22,0,0,0-.84-.15c-.53,0-.84.21-.84.57s.31.52.71.52,1-.3,1-.74Z" transform="translate(0)"/>
    <path class="cls-3" d="M73.14,84.47H74v.79a1.29,1.29,0,0,1,1.3-.86v.86h-.05c-.74,0-1.25.46-1.25,1.4V88h-.85Z" transform="translate(0)"/>
    <path class="cls-3" d="M75.69,86.24A2,2,0,0,1,79.06,85l-.52.55a1.24,1.24,0,0,0-1-.45,1.08,1.08,0,0,0-1,1.14,1.09,1.09,0,0,0,1.1,1.14,1.33,1.33,0,0,0,1-.44l.51.48a1.91,1.91,0,0,1-1.51.67A1.84,1.84,0,0,1,75.69,86.24Z" transform="translate(0)"/>
    <path class="cls-3" d="M79.86,83.11h.84V85a1.3,1.3,0,0,1,1.14-.63,1.24,1.24,0,0,1,1.31,1.36V88h-.84V86a.76.76,0,0,0-.79-.87.8.8,0,0,0-.82.88v2h-.84Z" transform="translate(0)"/>
    <path class="cls-3" d="M84.11,87.09H85V88h-.92Z" transform="translate(0)"/>
    <path class="cls-3" d="M86,87.09h.92V88H86Z" transform="translate(0)"/>
    <path class="cls-3" d="M87.85,87.09h.92V88h-.92Z" transform="translate(0)"/>
    <path class="cls-3" d="M89.72,87.09h.92V88h-.92Z" transform="translate(0)"/>
  </g>
  <g>
    <path class="cls-1" d="M138.32,131.21a.9.9,0,1,1,.9.87A.88.88,0,0,1,138.32,131.21Z" transform="translate(0)"/>
    <path class="cls-1" d="M180.16,131.44h-40.7a.23.23,0,0,1-.24-.23h0a.24.24,0,0,1,.24-.24h40.7a.25.25,0,0,1,.25.24h0A.24.24,0,0,1,180.16,131.44Z" transform="translate(0)"/>
  </g>
</svg>