<svg id="Calque_1" data-name="Calque 1" xmlns="http://www.w3.org/2000/svg" viewBox="0 0 249.75 199.36">
  <defs>
    <style>
      .cls-1 {
        fill: #deebf9;
      }

      .cls-2, .cls-7 {
        fill: #adc0e4;
      }

      .cls-3, .cls-4 {
        fill: #7199d1;
      }

      .cls-4 {
        opacity: 0.7;
      }

      .cls-5 {
        fill: #92aedc;
      }

      .cls-6 {
        fill: #d1def3;
      }

      .cls-7 {
        opacity: 0.5;
      }

      .cls-8 {
        fill: #ee7610;
      }

      .cls-9 {
        fill: #f28f38;
      }

      .cls-10 {
        fill: #ec6707;
      }

      .cls-11 {
        fill: #2a3a67;
      }

      .cls-12 {
        fill: #f6aa78;
      }

      .cls-13 {
        fill: #fff;
      }

      .cls-14 {
        fill: #2953a0;
      }

      .cls-15 {
        fill: #203865;
      }

      .cls-16 {
        fill: #f39355;
      }

      .cls-17 {
        fill: #1a3760;
      }

      .cls-18 {
        fill: #193f79;
      }

      .cls-19 {
        fill: #f39253;
      }

      .cls-20 {
        fill: #264791;
      }
       .spin{
             
                animation: spin 1s infinite
               
              }
           @keyframes spin {
                from{
                transform: rotate(0deg);
                    }
                to{
                 transform: rotate(360deg);
                }
             }
    </style>
  </defs>

  <title>Sans titre - 1</title>
  <path class="cls-1"  d="M106.72,69.51l2.47-2.45a.55.55,0,0,1,.71-.08,10.23,10.23,0,0,0,.89.56,9.55,9.55,0,0,0,1.72.75A.83.83,0,0,1,113,69l.49,4.26c0,.45.35.78.7.75l2.92-.26a.79.79,0,0,0,.61-.83l.12-4a.86.86,0,0,1,.5-.82,10.76,10.76,0,0,0,3.4-2.08.56.56,0,0,1,.82.09l1.32,1.63a.56.56,0,0,0,.9,0L127,65.23a1,1,0,0,0,.11-.17,1.13,1.13,0,0,0,0-1l-1.37-2.47-.33-.6a17.38,17.38,0,0,0,.74-2,22,22,0,0,0,.65-2.84.79.79,0,0,1,.54-.7l2.55-.52a.89.89,0,0,0,.58-1l-.15-3,0-.86a.83.83,0,0,0-.66-.86l-2.46-.15a.7.7,0,0,1-.61-.62,19.55,19.55,0,0,0-1-3.12c0-.08-.07-.16-.1-.25a.11.11,0,0,1,0-.08,1.09,1.09,0,0,1,.12-1l2-2.9.06-.1a1.16,1.16,0,0,0,0-1.1L125.58,37a.57.57,0,0,0-.91-.13l-2.57,2.56a.52.52,0,0,1-.74,0,11.35,11.35,0,0,0-1.63-1.1c-.3-.16-.61-.31-.91-.44a.88.88,0,0,1-.47-.74l-.47-4.09c0-.45-.35-.78-.7-.75l-2.89.26a.83.83,0,0,0-.64.88l-.1,3.14a.87.87,0,0,1-.54.85,10,10,0,0,0-3.43,1.67.54.54,0,0,1-.78-.13l-1.94-2.37a.58.58,0,0,0-.93,0l-2.16,2.57a1.13,1.13,0,0,0-.1,1.2l.08.14,1.59,2.88a1.16,1.16,0,0,1,0,1h0a17.75,17.75,0,0,0-1,2.48c-.14.47-.27.94-.38,1.42a.76.76,0,0,1-.54.63l-2.59.53a.89.89,0,0,0-.58,1l.19,3.87a1.42,1.42,0,0,0,.06.31.73.73,0,0,0,.59.54l2,.11a.68.68,0,0,1,.56.48,1.37,1.37,0,0,1,.07.24,18.82,18.82,0,0,0,1.8,5.76,1.16,1.16,0,0,1,0,1l-.07.12-1.59,2.35a1.13,1.13,0,0,0,0,1.2l0,.07,1.87,2.85A.57.57,0,0,0,106.72,69.51Zm12.53-23.18a8.44,8.44,0,0,1,2.36,5.53c0,.14,0,.28,0,.42.19,8.44-7.12,12.43-11.37,6A10.13,10.13,0,0,1,109,54.78a6.36,6.36,0,0,1-.09-.83,13.41,13.41,0,0,1,.25-3.3C110.39,44.91,115.54,42.46,119.25,46.33Z"/>
  <path class="cls-1" d="M126.37,28.77l2.12-1.54a.41.41,0,0,1,.55.05l.65.56a8.28,8.28,0,0,0,1.28.84.72.72,0,0,1,.33.65l0,3.38a.63.63,0,0,0,.48.68l2.3.24c.26,0,.49-.22.54-.56l.42-3.06a.61.61,0,0,1,.45-.56,7.65,7.65,0,0,0,2.81-1.11.45.45,0,0,1,.63.19l.89,1.46a.44.44,0,0,0,.7.14l1.91-1.69a.52.52,0,0,0,.1-.11.87.87,0,0,0,.07-.8l-.85-2.12-.21-.52a13.84,13.84,0,0,0,.73-1.44,14.26,14.26,0,0,0,.74-2.11c.08-.27.26-.46.48-.46l2,0a.65.65,0,0,0,.52-.67l.13-2.35,0-.67a.72.72,0,0,0-.44-.77l-1.9-.48a.62.62,0,0,1-.42-.58,15.68,15.68,0,0,0-.51-2.56,1.6,1.6,0,0,0-.05-.21.14.14,0,0,1,0-.07.86.86,0,0,1,.17-.74l1.77-2,0-.07a.92.92,0,0,0,.05-.87l-1.25-2.55a.46.46,0,0,0-.7-.23l-2.2,1.61a.43.43,0,0,1-.58-.08A11,11,0,0,0,139,6.51c-.23-.17-.45-.33-.68-.48a.77.77,0,0,1-.3-.64l0-3.25a.63.63,0,0,0-.48-.68l-2.27-.23c-.27,0-.52.22-.57.59l-.33,2.42a.62.62,0,0,1-.49.58,7.4,7.4,0,0,0-2.8.79.45.45,0,0,1-.6-.21l-1.31-2.13a.46.46,0,0,0-.72-.15l-1.9,1.68a.86.86,0,0,0-.17.92l0,.12,1,2.47a.92.92,0,0,1-.07.81h0a13,13,0,0,0-1,1.78c-.15.35-.29.7-.41,1a.54.54,0,0,1-.47.41l-2.06,0c-.28,0-.51.3-.53.67l-.17,3a1,1,0,0,0,0,.25.65.65,0,0,0,.41.51l1.52.37a.61.61,0,0,1,.4.46.64.64,0,0,1,0,.2,15.84,15.84,0,0,0,.93,4.74.91.91,0,0,1-.07.76l-.07.09-1.43,1.58a.9.9,0,0,0-.1.94l0,.06,1.22,2.48A.46.46,0,0,0,126.37,28.77ZM138,12.61a9.19,9.19,0,0,1,.71,1.21,8.28,8.28,0,0,1,.66,3.44c0,.11,0,.22,0,.33-.54,6.59-6.55,8.6-9.32,3a8.36,8.36,0,0,1-.69-2.94,4.69,4.69,0,0,1,0-.65,9.57,9.57,0,0,1,.47-2.53C131.24,10.2,135.44,9.06,138,12.61Z" transform="translate(-0.02)"/>
  <path class="cls-1" d="M221.19,155l2.62-1.9a.51.51,0,0,1,.68.06c.26.24.53.47.8.69a10,10,0,0,0,1.58,1,.93.93,0,0,1,.42.81l0,4.16a.79.79,0,0,0,.59.85l2.84.29c.32,0,.6-.26.66-.69l.52-3.77a.76.76,0,0,1,.56-.7,9.34,9.34,0,0,0,3.47-1.37.55.55,0,0,1,.78.24l1.1,1.8a.56.56,0,0,0,.87.18l2.35-2.09a.64.64,0,0,0,.13-.15,1.09,1.09,0,0,0,.08-1l-1.05-2.62-.26-.64a17.28,17.28,0,0,0,.91-1.77,18.76,18.76,0,0,0,.91-2.61.69.69,0,0,1,.59-.57l2.5,0a.78.78,0,0,0,.65-.82l.16-2.9,0-.83a.89.89,0,0,0-.54-.95l-2.35-.59a.76.76,0,0,1-.52-.71,19.34,19.34,0,0,0-.63-3.17,2.5,2.5,0,0,0-.07-.26s0,0,0-.08a1,1,0,0,1,.22-.92l2.17-2.42.07-.09a1.12,1.12,0,0,0,.06-1.07l-1.54-3.15a.57.57,0,0,0-.86-.29L239,129a.5.5,0,0,1-.71-.1,12.33,12.33,0,0,0-1.45-1.35c-.27-.21-.55-.41-.83-.59a1,1,0,0,1-.38-.8l0-4a.78.78,0,0,0-.59-.84l-2.8-.28c-.34,0-.64.28-.71.73l-.41,3a.78.78,0,0,1-.61.72,9,9,0,0,0-3.45,1,.55.55,0,0,1-.74-.26l-1.62-2.64a.57.57,0,0,0-.89-.18l-2.34,2.07a1.06,1.06,0,0,0-.21,1.14l.06.15,1.23,3a1.14,1.14,0,0,1-.08,1h0a16.35,16.35,0,0,0-1.18,2.2c-.18.43-.35.86-.5,1.3a.67.67,0,0,1-.58.5l-2.54,0a.78.78,0,0,0-.66.83l-.21,3.74a1.55,1.55,0,0,0,0,.31.76.76,0,0,0,.5.62l1.88.46a.77.77,0,0,1,.5.57,1,1,0,0,1,0,.24,19.61,19.61,0,0,0,1.15,5.86,1.14,1.14,0,0,1-.09.94l-.08.11-1.77,1.95a1.12,1.12,0,0,0-.13,1.16l0,.07,1.5,3.07A.57.57,0,0,0,221.19,155Zm14.37-19.95a9.72,9.72,0,0,1,.88,1.5,10.2,10.2,0,0,1,.82,4.25c0,.13,0,.27,0,.4-.67,8.13-8.09,10.62-11.52,3.71a10.58,10.58,0,0,1-.85-3.63,7.11,7.11,0,0,1,0-.8,12.18,12.18,0,0,1,.58-3.13C227.21,132.11,232.4,130.71,235.56,135.09Z" transform="translate(-0.02)"/>
  <path class="cls-2" d="M236.65,118.69l1.4-1a.27.27,0,0,1,.36,0l.43.37a6.7,6.7,0,0,0,.84.55.47.47,0,0,1,.23.43l0,2.23a.42.42,0,0,0,.31.46l1.52.15c.17,0,.32-.14.35-.37l.28-2a.42.42,0,0,1,.3-.37,5.16,5.16,0,0,0,1.86-.73.29.29,0,0,1,.41.13l.6,1a.29.29,0,0,0,.46.09l1.26-1.11s.05,0,.06-.08a.58.58,0,0,0,0-.53l-.56-1.4-.14-.34a9.38,9.38,0,0,0,.48-.95,10,10,0,0,0,.49-1.39c.05-.18.17-.31.32-.31l1.34,0a.4.4,0,0,0,.34-.43l.09-1.56,0-.44a.47.47,0,0,0-.28-.51l-1.26-.31a.42.42,0,0,1-.28-.39,11.74,11.74,0,0,0-.33-1.69s0-.09,0-.14a.06.06,0,0,1,0,0,.58.58,0,0,1,.11-.5l1.17-1.29,0,0a.6.6,0,0,0,0-.57l-.83-1.68a.31.31,0,0,0-.46-.16l-1.46,1.06a.26.26,0,0,1-.38-.05A7.46,7.46,0,0,0,245,104l-.45-.32a.5.5,0,0,1-.2-.42l0-2.15a.43.43,0,0,0-.32-.45l-1.49-.15c-.19,0-.35.15-.38.39l-.22,1.6a.41.41,0,0,1-.33.38,5,5,0,0,0-1.85.52.29.29,0,0,1-.39-.14l-.87-1.4a.3.3,0,0,0-.47-.1l-1.25,1.11a.56.56,0,0,0-.12.6l0,.09.65,1.62a.6.6,0,0,1,0,.54h0a9.39,9.39,0,0,0-.63,1.18q-.15.35-.27.69a.35.35,0,0,1-.31.27l-1.36,0c-.18,0-.34.2-.35.44l-.11,2a.42.42,0,0,0,0,.16.44.44,0,0,0,.27.34l1,.24a.42.42,0,0,1,.26.31.51.51,0,0,1,0,.13,10.8,10.8,0,0,0,.61,3.13.58.58,0,0,1-.05.5l0,.06-.94,1a.56.56,0,0,0-.07.61l0,0,.8,1.65A.31.31,0,0,0,236.65,118.69ZM244.33,108a6,6,0,0,1,.48.8,5.71,5.71,0,0,1,.44,2.27c0,.08,0,.15,0,.22-.35,4.35-4.32,5.68-6.16,2a5.48,5.48,0,0,1-.45-2,3.08,3.08,0,0,1,0-.43,6,6,0,0,1,.31-1.67C239.87,106.42,242.64,105.67,244.33,108Z" transform="translate(-0.02)"/>
  <path class="cls-1" d="M4,119.07,5.55,118a.31.31,0,0,1,.4,0l.47.41a6.37,6.37,0,0,0,.92.61.51.51,0,0,1,.25.47l0,2.44a.46.46,0,0,0,.35.5l1.66.17c.18,0,.35-.15.39-.4l.3-2.22a.46.46,0,0,1,.33-.41,5.6,5.6,0,0,0,2-.8.32.32,0,0,1,.45.14l.65,1.06a.33.33,0,0,0,.51.1l1.38-1.22a.71.71,0,0,0,.07-.09.62.62,0,0,0,0-.58l-.62-1.53-.15-.38a9.19,9.19,0,0,0,.53-1,10.29,10.29,0,0,0,.54-1.53.4.4,0,0,1,.35-.33l1.46,0a.45.45,0,0,0,.38-.48l.1-1.7,0-.49a.52.52,0,0,0-.31-.56l-1.38-.34a.48.48,0,0,1-.31-.42,11.33,11.33,0,0,0-.36-1.86s0-.1,0-.15,0,0,0,0a.63.63,0,0,1,.13-.54l1.28-1.42,0,0a.65.65,0,0,0,0-.62l-.9-1.85a.34.34,0,0,0-.51-.17l-1.6,1.16a.29.29,0,0,1-.41,0,8,8,0,0,0-.85-.8l-.49-.35a.52.52,0,0,1-.22-.46l0-2.35a.47.47,0,0,0-.35-.5l-1.64-.16c-.2,0-.38.16-.42.43l-.24,1.75a.45.45,0,0,1-.35.42,5.29,5.29,0,0,0-2,.57.32.32,0,0,1-.43-.15l-1-1.55a.33.33,0,0,0-.52-.1l-1.38,1.21a.64.64,0,0,0-.12.67l0,.09.72,1.78a.72.72,0,0,1,0,.59h0a8.8,8.8,0,0,0-.69,1.29c-.11.25-.21.5-.3.76a.39.39,0,0,1-.34.3l-1.49,0c-.2,0-.37.22-.38.48l-.13,2.2a1,1,0,0,0,0,.18.47.47,0,0,0,.3.37l1.1.27a.45.45,0,0,1,.29.33.68.68,0,0,1,0,.14,11.54,11.54,0,0,0,.67,3.44.66.66,0,0,1-.05.55l0,.06-1,1.15a.64.64,0,0,0-.08.68l0,0,.88,1.8C3.62,119.13,3.84,119.2,4,119.07Zm8.43-11.7a5.67,5.67,0,0,1,.52.88,6.08,6.08,0,0,1,.48,2.49,1.94,1.94,0,0,1,0,.24c-.39,4.77-4.74,6.22-6.75,2.18a6.23,6.23,0,0,1-.5-2.13,3.84,3.84,0,0,1,0-.48,7.17,7.17,0,0,1,.34-1.83C7.54,105.62,10.58,104.8,12.44,107.37Z" transform="translate(-0.02)"/>
  <path class="cls-1" d="M143.79,84.63l3.94-3.79a.86.86,0,0,1,1.12-.09,15.85,15.85,0,0,0,1.4.9A14.86,14.86,0,0,0,153,82.9a1.36,1.36,0,0,1,.8,1.2l.68,6.73c.07.72.54,1.25,1.09,1.21l4.62-.31a1.24,1.24,0,0,0,1-1.29l.27-6.24a1.35,1.35,0,0,1,.79-1.28,16.61,16.61,0,0,0,5.41-3.16.88.88,0,0,1,1.3.17L171,82.55a.88.88,0,0,0,1.42,0l3.49-4a1.27,1.27,0,0,0,.18-.27,1.79,1.79,0,0,0,0-1.61l-2.1-4-.52-1a28.08,28.08,0,0,0,1.21-3.12,31.69,31.69,0,0,0,1.08-4.45,1.22,1.22,0,0,1,.87-1.08l4-.74a1.38,1.38,0,0,0,.93-1.49l-.18-4.75-.05-1.36a1.32,1.32,0,0,0-1-1.38l-3.89-.31a1.16,1.16,0,0,1-1-1A30.52,30.52,0,0,0,174,47.13l-.15-.39a.39.39,0,0,1,0-.14,1.79,1.79,0,0,1,.21-1.55l3.15-4.5a.62.62,0,0,0,.1-.16,1.85,1.85,0,0,0-.06-1.74l-3-4.68a.89.89,0,0,0-1.43-.23l-4.11,3.95a.82.82,0,0,1-1.17,0,17.34,17.34,0,0,0-2.54-1.79,15.09,15.09,0,0,0-1.44-.74,1.45,1.45,0,0,1-.73-1.19l-.66-6.47c-.07-.71-.54-1.24-1.08-1.2l-4.57.31a1.3,1.3,0,0,0-1,1.37L155.21,33a1.36,1.36,0,0,1-.87,1.33,15.87,15.87,0,0,0-5.44,2.51.86.86,0,0,1-1.24-.22l-3-3.82a.89.89,0,0,0-1.45,0l-3.47,4a1.77,1.77,0,0,0-.18,1.89l.13.24,2.44,4.59a1.85,1.85,0,0,1,0,1.64h0a28.3,28.3,0,0,0-1.57,3.88c-.23.74-.44,1.48-.62,2.23a1.19,1.19,0,0,1-.86,1l-4.1.75a1.41,1.41,0,0,0-.95,1.52l.23,6.11a1.93,1.93,0,0,0,.09.49,1.16,1.16,0,0,0,.91.87l3.11.24a1.12,1.12,0,0,1,.89.78,2.34,2.34,0,0,1,.09.38,30.71,30.71,0,0,0,2.73,9.17,1.8,1.8,0,0,1,0,1.54,1.18,1.18,0,0,1-.11.19l-2.56,3.65a1.81,1.81,0,0,0,0,1.9l.07.11,2.9,4.56A.9.9,0,0,0,143.79,84.63ZM164,48.46a15.53,15.53,0,0,1,1.65,2.18,15.88,15.88,0,0,1,2,6.65c0,.22,0,.44,0,.66.14,13.33-11.48,19.37-18.06,9.13a16.11,16.11,0,0,1-1.93-5.63,10.8,10.8,0,0,1-.12-1.31,20.15,20.15,0,0,1,.46-5.21C150.07,45.91,158.24,42.23,164,48.46Z" transform="translate(-0.02)"/>
  <path class="cls-1" d="M21.56,73.41c1.24-8.4,11.72-6.79,11.72-6.79s7.79,13.75,9.85,13.9S38.19,67,38.19,67c3.93-.89,14.37,4.68,14.37,4.68s.24,16.88,2.27,16.35-.78-14.93-.78-14.93C58,74.3,61.86,80,61.86,80c5,9.36-4.23,17.47-4.23,17.47a34.54,34.54,0,0,0,3.21,12.29h0a22.5,22.5,0,0,1,1.4,3.22l-1.05.1c-.11-.37-.22-.72-.34-1.06h0c-.08-.22-.2-.51-.35-.88h0c-.36-.81-.61-1.41-.77-1.85h0c-1.1-2.54-2.65-5.85-3.61-6.48a3.72,3.72,0,0,0,.19-.67l-.19.67c-1.52,5.31-10.43,7-15.48,6.11s-3-3-.46-6.31,8.19-3,9.79-4.4-.89-2.33-4.2-1.67S41,101.76,35.69,103,25.56,91,25.56,91c3.79,1.19,10.29-2.18,10.46-3.92s-9.67-.64-11.23-1S20.33,81.8,21.56,73.41Z" transform="translate(-0.02)"/>
  <path class="cls-3" d="M106.05,105.34,100.5,193.9s-.58,5.37,2.39,5.38h24.34s-3.68-1.12-3.63-3.64c.05-3,6.48-91.14,6.48-91.14Z" transform="translate(-0.02)"/>
  <path class="cls-2" d="M128.81,197.67c-1,0-19.54.08-24.3,0-2.08,0-2.44-2.48-2.46-4.06a9.46,9.46,0,0,1,.07-1.32l.14-2.3.37-5.87.32-5.18.42-6.66.35-5.62,3.94-62.93,24-.84s-2.71,36.91-4.63,63.77c-.21,3-.41,5.86-.6,8.54-.06.86-.12,1.69-.18,2.51-.18,2.54-.34,4.87-.48,6.93-.08,1.09-.14,2.1-.21,3-.24,3.62-.38,5.94-.39,6.38a5.27,5.27,0,0,0,.05.71A3.44,3.44,0,0,0,128.81,197.67Z" transform="translate(-0.02)"/>
  <polygon class="cls-2" points="47.66 57.15 61.17 130.02 63.02 140 69.31 173.94 186.25 173.94 163.05 57.15 47.66 57.15"/>
  <polygon class="cls-3" points="47.66 57.15 45.78 57.99 66.82 176.48 69.31 173.94 47.66 57.15"/>
  <polygon class="cls-3" points="66.82 176.48 183.04 176.48 186.25 173.94 69.31 173.94 66.82 176.48"/>
  <rect class="cls-2" x="107.65" y="197.7" width="25.16" height="1.61" transform="translate(240.45 397.01) rotate(180)"/>
  <polygon class="cls-4" points="126.4 176.48 126.27 177.71 102.61 184.12 102.93 178.94 103.09 176.48 126.4 176.48"/>
  <path class="cls-5" d="M128.81,197.67c-1,0-19.54.08-24.3,0-2.08,0-2.44-2.48-2.46-4.06l23.55-6c-.24,3.62-.38,5.94-.39,6.38a5.27,5.27,0,0,0,.05.71A3.44,3.44,0,0,0,128.81,197.67Z" transform="translate(-0.02)"/>
  <polygon class="cls-5" points="120.68 150.3 69.31 173.94 63.02 140 120.68 150.3"/>
  <polygon class="cls-6" points="47.66 57.15 163.05 57.15 181.63 151.01 65.07 151.01 47.66 57.15"/>
  <polygon class="cls-7" points="52.31 60.48 68.88 145.99 176.04 145.99 159.28 61.47 52.31 60.48"/>
  <rect class="cls-8" x="91.1" y="111.65" width="40.53" height="34.33"/>
  <rect class="cls-9" x="111.36" y="111.66" width="40.53" height="34.33"/>
  <polygon class="cls-10" points="111.36 116.73 102.82 128.2 91.12 128.2 91.12 111.65 111.36 111.65 111.36 116.73"/>
  <polygon class="cls-9" points="91.1 111.65 81.98 123.46 102.26 123.46 111.36 111.65 91.1 111.65"/>
  <polygon class="cls-8" points="151.89 112.87 111.36 111.66 111.36 116 111.36 116 111.36 116.72 118.9 127.81 151.89 127.81 151.89 116.77 151.68 116.44 151.89 116.44 151.89 112.87"/>
  <polygon class="cls-9" points="111.36 111.65 119.38 123.46 159.38 123.46 151.89 111.65 111.36 111.65"/>
  <path class="cls-11" d="M40.75,107.31s.29-4.12-3.15-4.12a3.83,3.83,0,0,1,1.58,1.13s-2.19-1.72-4.57.93-.9,9.3-1.62,10.56-3.55,1.51-3.2,5.59,9,9.2,8.39,12.57c0,0,3.38-6.65,1-9.69a6.72,6.72,0,0,1,1.29,3.25s.32-3.45-1.32-4.55c-1.44-1-2.63-4.55-2.5-5.19S40.75,107.31,40.75,107.31Z" transform="translate(-0.02)"/>
  <path class="cls-12" d="M37.38,127.11s2.56,14.23,5.08,17.08c1.51,1.71,6,5.64,6,5.64l-1.87.91s-6.24-2.83-7.64-5-5.22-13.25-5.22-13.25Z" transform="translate(-0.02)"/>
  <g>
    <path class="cls-9" d="M52.13,155l-.6-2c-.65-2.15-2.2-3.55-3.92-3.55H36.49v49.88h46V158.94h-26C54.55,158.94,52.84,157.4,52.13,155Z" transform="translate(-0.02)"/>
    <g>
      <path class="cls-13" d="M43.43,179.81v-3.6l9.39-5.52v3.67L46.26,178l6.56,3.62v3.72Z" transform="translate(-0.02)"/>
      <path class="cls-13" d="M62.58,166.39h2.51l-8.6,24.13H54Z" transform="translate(-0.02)"/>
      <path class="cls-13" d="M75.53,176.21v3.6l-9.39,5.52v-3.67L72.7,178l-6.56-3.62v-3.73Z" transform="translate(-0.02)"/>
    </g>
  </g>
  <path class="cls-14" d="M13.28,152.12s.05.11.07.17c.56,1.31,1.85,4.51,3.27,8,.67,1.67,1.37,3.4,2,5,1.14,2.82,2.19,5.33,2.8,6.65s1.07,2.29,1.26,2.67h0a.82.82,0,0,1,.06.39,26,26,0,0,0,0,3.53c.85,11.42,6.59,17.53,6.59,17.53l1.7.34s-2.41-12-3.12-18.79a17.68,17.68,0,0,1-.13-2.69,37.31,37.31,0,0,0-.55-7.34c-.79-5.3-2.23-11.8-3.49-17-.08-.33-2.48-12-2.48-12C19.33,141,12,142,12,142S10.74,146.06,13.28,152.12Z" transform="translate(-0.02)"/>
  <path class="cls-15" d="M34.69,199.36H27.58a7,7,0,0,1,.2-2.56c.35-1.06.86-1.1.06-2.76.45.63,1.91.89,2.94.7A12.07,12.07,0,0,0,32,197.26C32.48,197.71,34.55,197.55,34.69,199.36Z" transform="translate(-0.02)"/>
  <path class="cls-15" d="M13.28,152.12s.05.11.07.17c.56,1.31,3.6,8.83,5,12.34a68.14,68.14,0,0,1-.5-18.14Z" transform="translate(-0.02)"/>
  <path class="cls-11" d="M39.78,106.73a26.71,26.71,0,0,0-4.27,2.81c-1.93,2.87-1.38,6.62-.28,6.65.71,0,.57,1.6.57,1.6l7.89-4.47S42.74,105.89,39.78,106.73Z" transform="translate(-0.02)"/>
  <path class="cls-9" d="M37.13,125a17.32,17.32,0,0,1,1,5.83A7.66,7.66,0,0,1,33,134.64S36.21,125,37.13,125Z" transform="translate(-0.02)"/>
  <path class="cls-14" d="M18.83,142.71l0-1.79c-2.65.45-9.14-4.25-9.14-4.25s-2.78,2.47-3.16,9.55c-.18,3.45-1.35,18.06-1.48,22.42C5,170.22,5,171.35,5,171.8H5a.76.76,0,0,1-.11.36,21.88,21.88,0,0,0-1.44,3C-.6,185.24,1.52,199,1.52,199l.94-.32s3.42-14.24,5.66-20.4a14.14,14.14,0,0,1,1-2.33,31.89,31.89,0,0,0,2.6-6.5C13.38,164.13,18.83,142.71,18.83,142.71Z" transform="translate(-0.02)"/>
  <path class="cls-15" d="M7.18,199.36H.06a7,7,0,0,1,.2-2.56c.36-1.06.92-1.54.78-2.83a2.27,2.27,0,0,0,2.22,1.14,10.25,10.25,0,0,0,1.24,2.15C5,197.71,7,197.55,7.18,199.36Z" transform="translate(-0.02)"/>
  <path class="cls-9" d="M32.5,136.69c-.95.22.16,1.24-1.15,1.43-1.88.28-3.81.46-4.82,1a1.2,1.2,0,0,0-.69.75c-.44,1.77-3.22,4.81-3.22,4.81-12.4-.75-13.19-8.17-13.19-8.17,8-10.49,14.88-16.2,20.54-16.91a7.68,7.68,0,0,1,4.1.58c2,1.18,3.06,4.78,3.06,4.78S36.14,135.86,32.5,136.69Z" transform="translate(-0.02)"/>
  <path class="cls-8" d="M31.35,138.12c-1.88.28-3.81.46-4.82,1A33.74,33.74,0,0,1,29,124.59S30.94,135,31.35,138.12Z" transform="translate(-0.02)"/>
  <path class="cls-12" d="M33,123.18s-4.71-.34-5.54,3.62S29,146.6,29.5,148.24c.95,3,5.54,11.47,5.54,11.47l1.69-.7S33.67,146,33,144.76C31.91,142.74,34.37,124.91,33,123.18Z" transform="translate(-0.02)"/>
  <path class="cls-12" d="M36.73,159a4.46,4.46,0,0,0,.41,1.53,7.48,7.48,0,0,1,1.25,2.51s0,.33-.24.27-.89-1-1.24-.91a12.29,12.29,0,0,0,.37,1.89,7.19,7.19,0,0,1-.07,2.54c-.11.35-1.48-1.93-2.05-3s0-5.15,0-5.15Z" transform="translate(-0.02)"/>
  <path class="cls-9" d="M26.49,132.11c0,.09,4.45,1.09,7.23-.8,0,0,2.32-9.76-1-9.29s-5.28,1.87-5.37,4A53.07,53.07,0,0,1,26.49,132.11Z" transform="translate(-0.02)"/>
  <path class="cls-12" d="M34,120.87c.35,1.49,1.53,5.73,3.16,4.1a6.58,6.58,0,0,1,.7-2.17c.51-1.2,1.13-2.42,1.13-2.42l-2.66-3.13-.16-.19a8.7,8.7,0,0,1-2,3A.85.85,0,0,0,34,120.87Z" transform="translate(-0.02)"/>
  <path class="cls-16" d="M39,120.38s-.62,1.22-1.13,2.42c-1.66-1.37-1.66-4.12-1.53-5.55Z" transform="translate(-0.02)"/>
  <path class="cls-12" d="M39,122s-4-3-2.58-6.33,1.87-6,4.5-4.19,2.58,3.43,2.3,4.7S40.12,122.65,39,122Z" transform="translate(-0.02)"/>
  <path class="cls-11" d="M43.93,114.19c-.19-1.48-.75-1.62-1.14-1.53-1.48-3.29-3.91-2-3.91-2a5.26,5.26,0,0,1-3.17,2.55,4,4,0,0,0,2.39,1.89,2.52,2.52,0,0,0,1.9-.21,9,9,0,0,1-2.73,1.38c2.53.32,4.94-2.79,5.19-3.13a6.17,6.17,0,0,1,.2,2.23c-.16,1-.83,2.82-.42,3C42.24,118.42,44.2,116.41,43.93,114.19Z" transform="translate(-0.02)"/>
  <path class="cls-12" d="M49.2,149.83s-1.12,1.13-.27,1.87,2.35.94,2.36.46C51.31,150.53,50.7,149.37,49.2,149.83Z" transform="translate(-0.02)"/>
  <path class="cls-9" d="M65.44,87.83c-.13-.72.11-1.29.6-1.29s.94.56,1.07,1.29-.1,1.29-.61,1.29S65.57,88.56,65.44,87.83Zm1.25,0c-.09-.45-.31-.8-.56-.8s-.35.34-.27.8.31.79.56.79S66.77,88.29,66.69,87.83Z" transform="translate(-0.02)"/>
  <path class="cls-5" d="M58.23,69.09l-.31.1-.17-.45.5-.21h.28L59,71h-.41Z" transform="translate(-0.02)"/>
  <path class="cls-5" d="M59.69,69.79c-.13-.72.11-1.29.6-1.29s.94.56,1.07,1.29-.1,1.29-.61,1.29S59.82,70.52,59.69,69.79Zm1.24,0c-.08-.45-.3-.8-.55-.8s-.35.34-.27.8.31.79.56.79S61,70.25,60.93,69.79Z" transform="translate(-0.02)"/>
  <path class="cls-5" d="M92.57,69l-.3.11-.17-.45.5-.21h.28L93.33,71h-.4Z" transform="translate(-0.02)"/>
  <path class="cls-5" d="M94,69.71c-.13-.73.1-1.29.6-1.29s.93.55,1.07,1.28S95.6,71,95.1,71,94.17,70.44,94,69.71Zm1.24,0c-.08-.45-.31-.79-.55-.79s-.35.33-.27.8.31.79.56.79S95.37,70.16,95.28,69.7Z" transform="translate(-0.02)"/>
  <path class="cls-5" d="M96.53,69.7c-.13-.72.11-1.29.61-1.29s.93.56,1.06,1.29S98.1,71,97.6,71,96.66,70.43,96.53,69.7Zm1.25,0c-.08-.45-.31-.8-.56-.79s-.35.33-.26.79.3.8.55.79S97.86,70.16,97.78,69.7Z" transform="translate(-0.02)"/>
  <path class="cls-5" d="M109.3,69.71c-.13-.73.1-1.29.6-1.29s.93.55,1.07,1.28-.11,1.29-.61,1.3S109.43,70.44,109.3,69.71Zm1.24,0c-.08-.45-.31-.79-.55-.79s-.35.33-.27.8.31.79.56.79S110.63,70.16,110.54,69.7Z" transform="translate(-0.02)"/>
  <path class="cls-5" d="M111.79,69.7c-.13-.72.11-1.29.61-1.29s.93.56,1.06,1.29-.1,1.29-.6,1.29S111.92,70.43,111.79,69.7Zm1.25,0c-.08-.45-.31-.8-.56-.79s-.35.33-.26.79.3.8.55.79S113.12,70.16,113,69.7Z" transform="translate(-0.02)"/>
  <path class="cls-5" d="M114.29,69.7c-.13-.73.1-1.29.6-1.3s.94.56,1.07,1.29-.1,1.29-.61,1.29S114.42,70.43,114.29,69.7Zm1.24,0c-.08-.45-.31-.79-.55-.79s-.35.33-.27.8.31.79.56.79S115.62,70.15,115.53,69.69Z" transform="translate(-0.02)"/>
  <path class="cls-5" d="M131.64,69.64c-.13-.72.11-1.29.6-1.29s.94.55,1.07,1.29-.1,1.29-.61,1.29S131.77,70.37,131.64,69.64Zm1.24,0c-.08-.46-.3-.8-.55-.8s-.35.33-.27.8.31.79.56.79S133,70.1,132.88,69.64Z" transform="translate(-0.02)"/>
  <path class="cls-5" d="M134,69.63c-.13-.72.1-1.29.6-1.29s.94.56,1.07,1.29-.11,1.29-.61,1.29S134.16,70.36,134,69.63Zm1.24,0c-.08-.45-.31-.79-.55-.79s-.35.33-.27.79.31.8.56.8S135.36,70.09,135.27,69.63Z" transform="translate(-0.02)"/>
  <path class="cls-5" d="M136.63,69.63c-.13-.73.1-1.29.6-1.29s.93.55,1.07,1.28-.11,1.29-.61,1.3S136.76,70.36,136.63,69.63Zm1.24,0c-.08-.46-.31-.8-.56-.8s-.34.33-.26.8.31.79.56.79S138,70.08,137.87,69.63Z" transform="translate(-0.02)"/>
  <path class="cls-5" d="M140.87,69.62c-.13-.73.1-1.29.6-1.29s.94.55,1.07,1.28-.1,1.3-.61,1.3S141,70.35,140.87,69.62Zm1.24,0c-.08-.46-.31-.8-.55-.8s-.35.33-.27.8.31.79.56.79S142.2,70.08,142.11,69.62Z" transform="translate(-0.02)"/>
  <path class="cls-5" d="M143.56,68.9l-.31.11-.17-.45.5-.21h.28l.46,2.51h-.41Z" transform="translate(-0.02)"/>
  <path class="cls-5" d="M145,69.61c-.13-.72.11-1.29.6-1.29s.94.55,1.07,1.29-.1,1.29-.61,1.29S145.15,70.34,145,69.61Zm1.25,0c-.09-.46-.31-.8-.56-.8s-.35.33-.27.8.31.79.56.79S146.35,70.07,146.27,69.61Z" transform="translate(-0.02)"/>
  <path class="cls-5" d="M149.18,69.59c-.13-.72.1-1.29.6-1.29s.94.56,1.07,1.29-.1,1.29-.61,1.29S149.31,70.32,149.18,69.59Zm1.24,0c-.08-.45-.31-.79-.55-.79s-.35.33-.27.79.31.8.56.8S150.51,70.05,150.42,69.59Z" transform="translate(-0.02)"/>
  <path class="cls-5" d="M77.21,75.18c-.13-.72.1-1.29.6-1.29s.93.56,1.06,1.29-.1,1.29-.6,1.29S77.34,75.91,77.21,75.18Zm1.24,0c-.08-.45-.31-.79-.56-.79s-.34.33-.26.79.31.8.56.8S78.53,75.64,78.45,75.18Z" transform="translate(-0.02)"/>
  <path class="cls-5" d="M79.7,75.18c-.13-.73.11-1.29.61-1.29s.93.55,1.06,1.28-.1,1.3-.6,1.3S79.83,75.91,79.7,75.18Zm1.25,0c-.08-.46-.31-.8-.56-.8s-.35.33-.26.8.3.79.55.79S81,75.63,81,75.18Z" transform="translate(-0.02)"/>
  <path class="cls-5" d="M141.85,75.05c-.13-.73.1-1.29.6-1.29s.94.55,1.07,1.28-.11,1.3-.61,1.3S142,75.78,141.85,75.05Zm1.24,0c-.08-.46-.31-.8-.55-.8s-.35.33-.27.8.31.79.56.79S143.18,75.51,143.09,75.05Z" transform="translate(-0.02)"/>
  <path class="cls-5" d="M144.54,74.33l-.31.11-.17-.45.5-.21h.28l.46,2.51h-.41Z" transform="translate(-0.02)"/>
  <path class="cls-5" d="M146,75c-.13-.72.11-1.29.6-1.29s.94.55,1.07,1.29-.1,1.29-.61,1.29S146.13,75.77,146,75Zm1.24,0c-.08-.46-.3-.8-.55-.8s-.35.33-.27.8.31.79.56.79S147.33,75.5,147.24,75Z" transform="translate(-0.02)"/>
  <path class="cls-5" d="M155.15,75c-.13-.72.11-1.29.6-1.29s.94.56,1.07,1.29-.1,1.29-.61,1.29S155.28,75.74,155.15,75Zm1.25,0c-.09-.45-.31-.79-.56-.79s-.35.33-.27.79.31.8.56.8S156.48,75.47,156.4,75Z" transform="translate(-0.02)"/>
  <path class="cls-5" d="M157.84,74.3l-.31.1-.17-.44.5-.22h.29l.45,2.51h-.41Z" transform="translate(-0.02)"/>
  <path class="cls-5" d="M75.11,104.5c-.13-.72.1-1.29.6-1.29s.93.56,1.07,1.29-.11,1.29-.61,1.29S75.24,105.23,75.11,104.5Zm1.24,0c-.08-.46-.31-.8-.56-.8s-.34.34-.26.8.31.79.56.79S76.43,105,76.35,104.5Z" transform="translate(-0.02)"/>
  <path class="cls-5" d="M77.6,104.49c-.13-.72.11-1.29.61-1.29s.93.56,1.06,1.29-.1,1.29-.6,1.29S77.73,105.22,77.6,104.49Zm1.25,0c-.08-.45-.31-.79-.56-.79s-.35.33-.26.79.3.8.55.8S78.93,105,78.85,104.49Z" transform="translate(-0.02)"/>
  <path class="cls-5" d="M80.29,103.78l-.31.11-.17-.45.5-.22h.29l.45,2.51h-.41Z" transform="translate(-0.02)"/>
  <path class="cls-5" d="M84.25,104.48c-.13-.72.1-1.29.6-1.29s.94.55,1.07,1.29-.1,1.29-.61,1.29S84.38,105.21,84.25,104.48Zm1.24,0c-.08-.46-.31-.8-.55-.8s-.35.33-.27.8.31.79.56.79S85.58,104.94,85.49,104.48Z" transform="translate(-0.02)"/>
  <path class="cls-5" d="M86.74,104.47c-.13-.72.11-1.29.61-1.29s.93.56,1.06,1.29-.1,1.29-.6,1.29S86.88,105.2,86.74,104.47Zm1.25,0c-.08-.45-.31-.79-.56-.79s-.34.33-.26.79.31.8.56.8S88.07,104.93,88,104.47Z" transform="translate(-0.02)"/>
  <path class="cls-5" d="M89.24,104.47c-.13-.73.11-1.29.61-1.29s.93.55,1.06,1.28-.1,1.29-.6,1.3S89.37,105.2,89.24,104.47Zm1.25,0c-.09-.45-.31-.79-.56-.79s-.35.33-.27.8.31.79.56.79S90.57,104.92,90.49,104.46Z" transform="translate(-0.02)"/>
  <path class="cls-5" d="M120.4,104.5c-.13-.72.1-1.29.6-1.29s.94.56,1.07,1.29-.11,1.29-.61,1.29S120.53,105.23,120.4,104.5Zm1.24,0c-.08-.46-.31-.8-.55-.8s-.35.34-.27.8.31.79.56.79S121.73,105,121.64,104.5Z" transform="translate(-0.02)"/>
  <path class="cls-5" d="M122.89,104.49c-.13-.72.11-1.29.61-1.29s.93.56,1.06,1.29-.1,1.29-.6,1.29S123,105.22,122.89,104.49Zm1.25,0c-.08-.45-.31-.79-.56-.79s-.35.33-.26.79.3.8.55.8S124.22,105,124.14,104.49Z" transform="translate(-0.02)"/>
  <path class="cls-5" d="M125.58,103.78l-.31.11-.16-.45.5-.22h.28l.45,2.51h-.41Z" transform="translate(-0.02)"/>
  <path class="cls-5" d="M137.13,104.5c-.13-.72.11-1.29.61-1.29s.93.56,1.06,1.29-.1,1.29-.6,1.29S137.26,105.23,137.13,104.5Zm1.25,0c-.09-.46-.31-.8-.56-.8s-.35.34-.27.8.31.79.56.79S138.46,105,138.38,104.5Z" transform="translate(-0.02)"/>
  <path class="cls-5" d="M139.63,104.49c-.13-.72.1-1.29.6-1.29s.93.56,1.07,1.29-.11,1.29-.61,1.29S139.76,105.22,139.63,104.49Zm1.24,0c-.08-.45-.31-.79-.56-.79s-.34.33-.26.79.31.8.56.8S141,105,140.87,104.49Z" transform="translate(-0.02)"/>
  <path class="cls-5" d="M142.31,103.78l-.3.11-.17-.45.5-.22h.28l.45,2.51h-.4Z" transform="translate(-0.02)"/>
  <path class="cls-5" d="M129.54,104.48c-.13-.72.11-1.29.61-1.29s.93.55,1.06,1.29-.1,1.29-.6,1.29S129.67,105.21,129.54,104.48Zm1.25,0c-.09-.46-.31-.8-.56-.8s-.35.33-.26.8.3.79.55.79S130.87,104.94,130.79,104.48Z" transform="translate(-0.02)"/>
  <path class="cls-5" d="M132,104.47c-.13-.72.1-1.29.6-1.29s.93.56,1.07,1.29-.11,1.29-.61,1.29S132.17,105.2,132,104.47Zm1.24,0c-.08-.45-.31-.79-.55-.79s-.35.33-.27.79.31.8.56.8S133.37,104.93,133.28,104.47Z" transform="translate(-0.02)"/>
  <path class="cls-5" d="M134.53,104.47c-.13-.73.11-1.29.61-1.29s.93.55,1.06,1.28-.1,1.29-.6,1.3S134.66,105.2,134.53,104.47Zm1.25,0c-.08-.45-.31-.79-.56-.79s-.35.33-.26.8.3.79.55.79S135.86,104.92,135.78,104.46Z" transform="translate(-0.02)"/>
  <path class="cls-5" d="M97.78,104.41c-.13-.72.1-1.29.6-1.29s.93.56,1.07,1.29-.11,1.29-.61,1.29S97.91,105.14,97.78,104.41Zm1.24,0c-.08-.45-.31-.8-.56-.8s-.34.34-.26.8.31.79.56.79S99.1,104.87,99,104.41Z" transform="translate(-0.02)"/>
  <path class="cls-5" d="M100.46,103.7l-.3.1-.17-.45.5-.21h.28l.45,2.51h-.4Z" transform="translate(-0.02)"/>
  <path class="cls-5" d="M101.93,104.4c-.13-.72.1-1.29.6-1.29s.94.56,1.07,1.29-.11,1.29-.61,1.29S102.06,105.13,101.93,104.4Zm1.24,0c-.08-.45-.31-.8-.55-.79s-.35.33-.27.79.31.8.56.79S103.26,104.86,103.17,104.4Z" transform="translate(-0.02)"/>
  <path class="cls-5" d="M151.29,104.33c-.13-.72.11-1.29.61-1.29s.93.56,1.06,1.29-.1,1.29-.6,1.29S151.42,105.06,151.29,104.33Zm1.25,0c-.08-.45-.31-.79-.56-.79s-.35.33-.26.79.3.8.55.8S152.62,104.79,152.54,104.33Z" transform="translate(-0.02)"/>
  <path class="cls-5" d="M154,103.62l-.31.1-.17-.44.5-.22h.29l.45,2.51h-.41Z" transform="translate(-0.02)"/>
  <path class="cls-5" d="M155.44,104.32c-.13-.72.11-1.29.61-1.29s.93.56,1.06,1.29-.1,1.29-.6,1.29S155.57,105.05,155.44,104.32Zm1.25,0c-.08-.45-.31-.79-.56-.79s-.35.33-.26.79.3.8.55.8S156.77,104.78,156.69,104.32Z" transform="translate(-0.02)"/>
  <path class="cls-5" d="M60.34,80.82l-.31.11-.16-.45.5-.21h.28l.45,2.51h-.4Z" transform="translate(-0.02)"/>
  <path class="cls-5" d="M61.81,81.53c-.13-.72.1-1.29.6-1.29s.93.55,1.07,1.29-.11,1.29-.61,1.29S61.94,82.26,61.81,81.53Zm1.24,0c-.08-.46-.31-.8-.55-.8s-.35.33-.27.8.31.79.56.79S63.13,82,63.05,81.53Z" transform="translate(-0.02)"/>
  <path class="cls-5" d="M75.94,81.5c-.13-.73.11-1.29.61-1.29s.93.55,1.06,1.28-.1,1.29-.6,1.29S76.07,82.23,75.94,81.5Zm1.25,0c-.08-.45-.31-.79-.56-.79s-.35.33-.26.8.3.79.55.79S77.27,82,77.19,81.49Z" transform="translate(-0.02)"/>
  <path class="cls-5" d="M78.44,81.49c-.13-.72.1-1.29.6-1.29s.93.56,1.07,1.29-.11,1.29-.61,1.29S78.57,82.22,78.44,81.49Zm1.24,0c-.08-.45-.31-.8-.55-.8s-.35.34-.27.8.31.79.56.79S79.77,82,79.68,81.49Z" transform="translate(-0.02)"/>
  <path class="cls-5" d="M80.93,81.49c-.13-.73.11-1.3.61-1.3s.93.56,1.06,1.29-.1,1.29-.6,1.29S81.06,82.22,80.93,81.49Zm1.25,0c-.08-.45-.31-.79-.56-.79s-.35.33-.26.79.3.8.55.8S82.26,81.94,82.18,81.48Z" transform="translate(-0.02)"/>
  <path class="cls-5" d="M83.62,80.77l-.31.11-.16-.45.5-.22h.28l.45,2.52H84Z" transform="translate(-0.02)"/>
  <path class="cls-5" d="M85.29,80.77l-.31.1-.17-.44.51-.22h.28l.45,2.51h-.41Z" transform="translate(-0.02)"/>
  <path class="cls-5" d="M86.75,81.47c-.13-.72.11-1.29.61-1.29s.93.56,1.06,1.29-.1,1.29-.6,1.29S86.89,82.2,86.75,81.47Zm1.25,0c-.08-.45-.31-.79-.56-.79s-.35.33-.26.79.3.8.55.8S88.08,81.93,88,81.47Z" transform="translate(-0.02)"/>
  <path class="cls-9" d="M151.3,81.33c-.13-.72.1-1.29.6-1.29s.93.56,1.07,1.29-.11,1.29-.61,1.29S151.43,82.06,151.3,81.33Zm1.24,0c-.08-.45-.31-.8-.56-.8s-.34.34-.26.8.31.79.56.79S152.62,81.79,152.54,81.33Z" transform="translate(-0.02)"/>
  <path class="cls-9" d="M153.79,81.33c-.13-.73.11-1.29.61-1.3s.93.56,1.06,1.29-.1,1.29-.6,1.29S153.92,82.06,153.79,81.33Zm1.25,0c-.08-.45-.31-.79-.56-.79s-.35.33-.26.79.3.8.55.8S155.12,81.78,155,81.32Z" transform="translate(-0.02)"/>
  <path class="cls-5" d="M156.29,81.32c-.13-.72.1-1.29.6-1.29s.94.56,1.07,1.29-.11,1.29-.61,1.29S156.42,82.05,156.29,81.32Zm1.24,0c-.08-.46-.31-.8-.55-.8s-.35.34-.27.8.31.79.56.79S157.62,81.78,157.53,81.32Z" transform="translate(-0.02)"/>
  <path class="cls-5" d="M159,80.6l-.31.11-.17-.45.5-.21h.28l.46,2.51h-.41Z" transform="translate(-0.02)"/>
  <path class="cls-5" d="M61.48,87.13l-.31.11L61,86.79l.5-.22h.28l.45,2.52h-.41Z" transform="translate(-0.02)"/>
  <path class="cls-5" d="M62.94,87.84c-.13-.73.11-1.29.61-1.3s.93.56,1.06,1.29-.1,1.29-.6,1.29S63.08,88.57,62.94,87.84Zm1.25,0c-.08-.45-.31-.79-.56-.79s-.35.33-.26.8.31.79.55.79S64.27,88.29,64.19,87.83Z" transform="translate(-0.02)"/>
  <path class="cls-5" d="M74.58,87.81c-.13-.72.11-1.29.61-1.29s.93.56,1.06,1.29-.1,1.29-.6,1.29S74.72,88.54,74.58,87.81Zm1.25,0c-.08-.46-.31-.8-.56-.8s-.35.34-.26.8.3.79.55.79S75.91,88.27,75.83,87.81Z" transform="translate(-0.02)"/>
  <path class="cls-5" d="M77.08,87.8c-.13-.72.1-1.29.6-1.29s.94.56,1.07,1.29-.1,1.29-.61,1.29S77.21,88.54,77.08,87.8Zm1.24,0c-.08-.45-.31-.79-.55-.79s-.35.33-.27.79.31.8.56.8S78.41,88.26,78.32,87.8Z" transform="translate(-0.02)"/>
  <path class="cls-9" d="M67.61,100c-.13-.73.11-1.3.61-1.3s.93.56,1.06,1.29-.1,1.29-.6,1.29S67.75,100.75,67.61,100Zm1.25,0c-.08-.45-.31-.79-.56-.79s-.35.33-.26.79.3.8.55.8S68.94,100.47,68.86,100Z" transform="translate(-0.02)"/>
  <path class="cls-9" d="M70.3,99.3l-.31.11L69.83,99l.5-.22h.28l.45,2.52h-.41Z" transform="translate(-0.02)"/>
  <path class="cls-5" d="M62.52,93l-.31.1L62,92.67l.5-.22h.28L63.28,95h-.41Z" transform="translate(-0.02)"/>
  <path class="cls-5" d="M64,93.71c-.13-.72.11-1.29.6-1.29s.94.56,1.07,1.29S65.55,95,65,95,64.11,94.44,64,93.71Zm1.25,0c-.09-.45-.31-.79-.56-.79s-.35.33-.27.79.31.8.56.8S65.31,94.17,65.23,93.71Z" transform="translate(-0.02)"/>
  <path class="cls-5" d="M66.48,93.71c-.13-.73.1-1.29.6-1.29S68,93,68.15,93.7,68,95,67.54,95,66.61,94.44,66.48,93.71Zm1.24,0c-.08-.45-.31-.79-.56-.79s-.34.33-.26.8.31.79.56.79S67.8,94.16,67.72,93.7Z" transform="translate(-0.02)"/>
  <path class="cls-5" d="M69.16,93l-.3.11-.17-.45.5-.21h.28L69.92,95h-.4Z" transform="translate(-0.02)"/>
  <path class="cls-5" d="M70.63,93.7c-.13-.73.1-1.29.6-1.29s.94.55,1.07,1.28-.11,1.3-.61,1.3S70.76,94.43,70.63,93.7Zm1.24,0c-.08-.46-.31-.8-.55-.8s-.35.33-.27.8.31.79.56.79S72,94.15,71.87,93.7Z" transform="translate(-0.02)"/>
  <path class="cls-5" d="M73.12,93.69c-.13-.72.11-1.29.61-1.29s.93.56,1.06,1.29-.1,1.29-.6,1.29S73.26,94.42,73.12,93.69Zm1.25,0c-.08-.45-.31-.79-.56-.79s-.35.33-.26.79.3.8.55.8S74.45,94.15,74.37,93.69Z" transform="translate(-0.02)"/>
  <path class="cls-5" d="M75.62,93.69c-.13-.73.1-1.29.6-1.29s.94.55,1.07,1.28S77.19,95,76.68,95,75.75,94.42,75.62,93.69Zm1.24,0c-.08-.45-.31-.79-.55-.79s-.35.33-.27.8.31.79.56.79S77,94.14,76.86,93.68Z" transform="translate(-0.02)"/>
  <path class="cls-5" d="M78.12,93.68c-.14-.72.1-1.29.6-1.29s.93.56,1.06,1.29-.1,1.29-.6,1.29S78.25,94.41,78.12,93.68Zm1.24,0c-.08-.45-.31-.8-.56-.8s-.34.34-.26.8.31.79.56.79S79.44,94.14,79.36,93.68Z" transform="translate(-0.02)"/>
  <path class="cls-5" d="M80.61,93.68c-.13-.73.11-1.3.61-1.3s.93.56,1.06,1.29-.1,1.29-.6,1.29S80.74,94.41,80.61,93.68Zm1.25,0c-.09-.45-.31-.79-.56-.79s-.35.33-.27.79.31.8.56.8S81.94,94.13,81.86,93.67Z" transform="translate(-0.02)"/>
  <path class="cls-5" d="M83.11,93.67c-.13-.72.1-1.29.6-1.29s.93.56,1.07,1.29S84.67,95,84.17,95,83.24,94.4,83.11,93.67Zm1.24,0c-.08-.46-.31-.8-.55-.8s-.35.34-.27.8.31.79.56.79S84.43,94.13,84.35,93.67Z" transform="translate(-0.02)"/>
  <path class="cls-5" d="M85.79,93l-.3.11-.17-.45.5-.21h.28l.45,2.51h-.4Z" transform="translate(-0.02)"/>
  <path class="cls-5" d="M87.46,93l-.31.11L87,92.61l.5-.22h.28l.45,2.52h-.4Z" transform="translate(-0.02)"/>
  <path class="cls-5" d="M88.93,93.66c-.13-.73.1-1.29.6-1.3s.93.56,1.07,1.29-.11,1.29-.61,1.29S89.06,94.39,88.93,93.66Zm1.24,0c-.08-.45-.31-.79-.55-.79s-.35.33-.27.8.31.79.56.79S90.26,94.11,90.17,93.65Z" transform="translate(-0.02)"/>
  <path class="cls-5" d="M63.65,99.31l-.3.11L63.18,99l.5-.21H64l.45,2.51H64Z" transform="translate(-0.02)"/>
  <path class="cls-5" d="M65.12,100c-.13-.72.1-1.29.6-1.29s.94.56,1.07,1.29-.11,1.29-.61,1.29S65.25,100.75,65.12,100Zm1.24,0c-.08-.45-.31-.8-.55-.8s-.35.34-.27.8.31.79.56.79S66.45,100.48,66.36,100Z" transform="translate(-0.02)"/>
  <path class="cls-5" d="M71.77,100c-.14-.73.1-1.29.6-1.3s.93.56,1.06,1.29-.1,1.29-.6,1.29S71.9,100.74,71.77,100ZM73,100c-.08-.45-.31-.79-.56-.79s-.34.33-.26.79.31.8.56.8S73.09,100.46,73,100Z" transform="translate(-0.02)"/>
  <path class="cls-5" d="M74.26,100c-.13-.72.11-1.29.61-1.29s.93.56,1.06,1.29-.1,1.29-.6,1.29S74.39,100.73,74.26,100Zm1.25,0c-.09-.46-.31-.8-.56-.8s-.35.34-.26.8.3.79.55.79S75.59,100.46,75.51,100Z" transform="translate(-0.02)"/>
  <path class="cls-5" d="M69.82,114c-.13-.72.11-1.29.61-1.29s.93.56,1.06,1.29-.1,1.29-.6,1.29S70,114.73,69.82,114Zm1.25,0c-.09-.45-.31-.8-.56-.8s-.35.34-.27.8.31.79.56.79S71.15,114.46,71.07,114Z" transform="translate(-0.02)"/>
  <path class="cls-5" d="M72.51,113.29l-.31.1-.17-.45.5-.21h.29l.45,2.51h-.41Z" transform="translate(-0.02)"/>
  <path class="cls-5" d="M65.86,113.3l-.31.11-.16-.45.5-.22h.28l.45,2.52h-.41Z" transform="translate(-0.02)"/>
  <path class="cls-5" d="M67.32,114c-.13-.73.11-1.29.61-1.3s.93.56,1.06,1.29-.1,1.29-.6,1.29S67.46,114.74,67.32,114Zm1.25,0c-.08-.45-.31-.79-.56-.79s-.34.33-.26.8.31.79.56.79S68.65,114.46,68.57,114Z" transform="translate(-0.02)"/>
  <path class="cls-9" d="M74,114c-.13-.72.11-1.29.61-1.29s.93.56,1.06,1.29-.1,1.29-.6,1.29S74.1,114.72,74,114Zm1.25,0c-.08-.45-.31-.8-.56-.79s-.35.33-.26.79.3.8.55.79S75.3,114.45,75.22,114Z" transform="translate(-0.02)"/>
  <path class="cls-9" d="M76.47,114c-.13-.73.1-1.29.6-1.3s.94.56,1.07,1.29-.11,1.29-.61,1.29S76.6,114.72,76.47,114Zm1.24,0c-.08-.45-.31-.79-.55-.79s-.35.33-.27.8.31.79.56.79S77.8,114.44,77.71,114Z" transform="translate(-0.02)"/>
  <path class="cls-5" d="M66.74,118.5c-.13-.72.1-1.29.6-1.29s.93.56,1.07,1.29-.11,1.29-.61,1.29S66.87,119.23,66.74,118.5Zm1.24,0c-.08-.46-.31-.8-.55-.8s-.35.34-.27.8.31.79.56.79S68.07,119,68,118.5Z" transform="translate(-0.02)"/>
  <path class="cls-5" d="M69.42,117.78l-.3.11-.17-.45.5-.21h.28l.46,2.51h-.41Z" transform="translate(-0.02)"/>
  <path class="cls-5" d="M70.89,118.49c-.13-.72.1-1.29.6-1.29s.94.56,1.07,1.29-.11,1.29-.61,1.29S71,119.22,70.89,118.49Zm1.24,0c-.08-.45-.31-.8-.55-.8s-.35.34-.27.8.31.79.56.79S72.22,119,72.13,118.49Z" transform="translate(-0.02)"/>
  <path class="cls-5" d="M73.38,118.48c-.13-.72.11-1.29.61-1.29s.93.56,1.06,1.29-.1,1.29-.6,1.29S73.52,119.22,73.38,118.48Zm1.25,0c-.08-.45-.31-.79-.56-.79s-.35.33-.26.79.31.8.55.8S74.71,118.94,74.63,118.48Z" transform="translate(-0.02)"/>
  <path class="cls-5" d="M76.76,100c-.13-.72.1-1.29.6-1.29s.93.56,1.07,1.29-.11,1.29-.61,1.29S76.89,100.73,76.76,100ZM78,100c-.08-.45-.31-.79-.55-.79s-.35.33-.27.79.31.8.56.8S78.09,100.45,78,100Z" transform="translate(-0.02)"/>
  <path class="cls-5" d="M79.25,100c-.13-.72.11-1.29.61-1.29s.93.55,1.06,1.29-.1,1.29-.6,1.29S79.38,100.72,79.25,100Zm1.25,0c-.08-.46-.31-.8-.56-.8s-.35.33-.26.8.3.79.55.79S80.58,100.45,80.5,100Z" transform="translate(-0.02)"/>
  <path class="cls-9" d="M73,130.27c-.13-.72.11-1.29.61-1.29s.93.56,1.06,1.29-.1,1.29-.61,1.29S73.12,131,73,130.27Zm1.25,0c-.09-.45-.31-.79-.56-.79s-.35.33-.27.79.31.8.56.8S74.32,130.73,74.24,130.27Z" transform="translate(-0.02)"/>
  <path class="cls-9" d="M75.68,129.56l-.31.11-.17-.45.5-.22H76l.45,2.51H76Z" transform="translate(-0.02)"/>
  <path class="cls-5" d="M67.89,123.27l-.31.1-.16-.44.5-.22h.28l.45,2.51h-.4Z" transform="translate(-0.02)"/>
  <path class="cls-5" d="M69.36,124c-.13-.72.1-1.29.6-1.29s.93.56,1.07,1.29-.11,1.29-.61,1.29S69.49,124.7,69.36,124Zm1.24,0c-.08-.45-.31-.79-.55-.79s-.35.33-.27.79.31.8.56.8S70.69,124.43,70.6,124Z" transform="translate(-0.02)"/>
  <path class="cls-5" d="M71.85,124c-.13-.73.11-1.29.61-1.29s.93.55,1.06,1.28-.1,1.29-.6,1.3S72,124.7,71.85,124Zm1.25,0c-.08-.45-.31-.79-.56-.79s-.35.33-.26.8.3.79.55.79S73.18,124.42,73.1,124Z" transform="translate(-0.02)"/>
  <path class="cls-5" d="M74.54,123.25l-.31.11-.16-.45.5-.21h.28l.45,2.52h-.41Z" transform="translate(-0.02)"/>
  <path class="cls-5" d="M69,129.57l-.31.11-.16-.45.5-.21h.28l.45,2.51h-.41Z" transform="translate(-0.02)"/>
  <path class="cls-5" d="M70.49,130.28c-.13-.72.11-1.29.61-1.29s.93.56,1.06,1.29-.1,1.29-.6,1.29S70.63,131,70.49,130.28Zm1.25,0c-.08-.45-.31-.8-.56-.8s-.34.34-.26.8.31.79.56.79S71.82,130.74,71.74,130.28Z" transform="translate(-0.02)"/>
  <path class="cls-5" d="M77.14,130.27c-.13-.73.11-1.3.61-1.3s.93.56,1.06,1.29-.1,1.29-.6,1.29S77.27,131,77.14,130.27Zm1.25,0c-.08-.45-.31-.79-.56-.79s-.35.33-.26.79.3.8.55.8S78.47,130.72,78.39,130.26Z" transform="translate(-0.02)"/>
  <path class="cls-5" d="M79.64,130.26c-.13-.72.1-1.29.6-1.29s.94.56,1.07,1.29-.11,1.29-.61,1.29S79.77,131,79.64,130.26Zm1.24,0c-.08-.46-.31-.8-.55-.8s-.35.34-.27.8.31.79.56.79S81,130.72,80.88,130.26Z" transform="translate(-0.02)"/>
  <path class="cls-9" d="M74,134.73c-.13-.73.11-1.29.61-1.29s.93.55,1.06,1.28-.1,1.3-.6,1.3S74.08,135.46,74,134.73Zm1.25,0c-.08-.46-.31-.8-.56-.8s-.35.33-.26.8.3.79.55.79S75.28,135.19,75.2,134.73Z" transform="translate(-0.02)"/>
  <path class="cls-9" d="M76.64,134l-.31.11-.16-.45.5-.21H77L77.4,136H77Z" transform="translate(-0.02)"/>
  <path class="cls-5" d="M71.46,134.73c-.13-.72.1-1.29.6-1.29s.93.56,1.07,1.29S73,136,72.52,136,71.59,135.46,71.46,134.73Zm1.24,0c-.08-.45-.31-.79-.55-.79s-.35.33-.27.79.31.8.56.8S72.79,135.19,72.7,134.73Z" transform="translate(-0.02)"/>
  <path class="cls-5" d="M78.1,134.72c-.13-.72.11-1.29.61-1.29s.93.55,1.06,1.29-.1,1.29-.6,1.29S78.24,135.45,78.1,134.72Zm1.25,0c-.08-.46-.31-.8-.56-.8s-.35.33-.26.8.31.79.56.79S79.43,135.18,79.35,134.72Z" transform="translate(-0.02)"/>
  <path class="cls-5" d="M80.6,134.71c-.13-.72.11-1.29.6-1.29s.94.56,1.07,1.29-.1,1.29-.61,1.29S80.73,135.44,80.6,134.71Zm1.25,0c-.09-.45-.31-.79-.56-.79s-.35.33-.27.79.31.8.56.8S81.93,135.17,81.85,134.71Z" transform="translate(-0.02)"/>
  <path class="cls-5" d="M82.13,130.25c-.13-.72.11-1.29.61-1.29s.93.56,1.06,1.29-.1,1.29-.6,1.29S82.27,131,82.13,130.25Zm1.25,0c-.08-.45-.31-.79-.56-.79s-.35.33-.26.79.3.8.55.8S83.46,130.71,83.38,130.25Z" transform="translate(-0.02)"/>
  <path class="cls-5" d="M84.63,130.25c-.13-.72.1-1.29.6-1.29s.94.55,1.07,1.28-.1,1.3-.61,1.3S84.76,131,84.63,130.25Zm1.24,0c-.08-.46-.31-.8-.55-.8s-.35.33-.27.8.31.79.56.79S86,130.71,85.87,130.25Z" transform="translate(-0.02)"/>
  <path class="cls-5" d="M151,86.93l-.31.11-.17-.45.51-.21h.28l.45,2.51h-.41Z" transform="translate(-0.02)"/>
  <path class="cls-5" d="M152.43,87.64c-.13-.72.11-1.29.61-1.29s.93.55,1.06,1.29-.1,1.29-.6,1.29S152.57,88.37,152.43,87.64Zm1.25,0c-.08-.46-.31-.8-.56-.8s-.35.33-.26.8.31.79.55.79S153.76,88.1,153.68,87.64Z" transform="translate(-0.02)"/>
  <path class="cls-5" d="M154.93,87.63c-.13-.72.11-1.29.6-1.29s.94.56,1.07,1.29-.1,1.29-.61,1.29S155.06,88.36,154.93,87.63Zm1.25,0c-.09-.45-.31-.79-.56-.79s-.35.33-.27.79.31.8.56.8S156.26,88.09,156.18,87.63Z" transform="translate(-0.02)"/>
  <path class="cls-5" d="M157.43,87.63c-.13-.73.1-1.29.6-1.29s.93.55,1.06,1.28-.1,1.29-.6,1.3S157.56,88.36,157.43,87.63Zm1.24,0c-.08-.46-.31-.8-.56-.8s-.34.33-.26.8.31.79.56.79S158.75,88.08,158.67,87.63Z" transform="translate(-0.02)"/>
  <path class="cls-5" d="M160.11,86.91l-.31.11-.16-.45.5-.21h.28l.45,2.51h-.4Z" transform="translate(-0.02)"/>
  <path class="cls-5" d="M148.28,93.66c-.13-.72.11-1.29.61-1.29s.93.56,1.06,1.29-.1,1.29-.6,1.29S148.41,94.39,148.28,93.66Zm1.25,0c-.08-.45-.31-.79-.56-.79s-.35.33-.26.79.3.8.55.8S149.61,94.12,149.53,93.66Z" transform="translate(-0.02)"/>
  <path class="cls-5" d="M151,93l-.31.11-.17-.45.51-.22h.28l.45,2.51h-.41Z" transform="translate(-0.02)"/>
  <path class="cls-9" d="M152.43,93.65c-.13-.72.11-1.29.61-1.29s.93.56,1.06,1.29-.1,1.29-.6,1.29S152.57,94.39,152.43,93.65Zm1.25,0c-.08-.45-.31-.79-.56-.79s-.35.33-.26.79.31.8.55.8S153.76,94.11,153.68,93.65Z" transform="translate(-0.02)"/>
  <path class="cls-9" d="M154.93,93.65c-.13-.72.11-1.29.6-1.29s.94.55,1.07,1.29-.1,1.29-.61,1.29S155.06,94.38,154.93,93.65Zm1.25,0c-.09-.46-.31-.8-.56-.8s-.35.33-.27.8.31.79.56.79S156.26,94.11,156.18,93.65Z" transform="translate(-0.02)"/>
  <path class="cls-9" d="M157.43,93.64c-.13-.72.1-1.29.6-1.29s.93.56,1.06,1.29-.1,1.29-.6,1.29S157.56,94.37,157.43,93.64Zm1.24,0c-.08-.45-.31-.79-.56-.79s-.34.33-.26.79.31.8.56.8S158.75,94.1,158.67,93.64Z" transform="translate(-0.02)"/>
  <path class="cls-9" d="M160.11,92.93l-.31.11-.16-.45.5-.22h.28l.45,2.51h-.4Z" transform="translate(-0.02)"/>
  <path class="cls-5" d="M159.61,127.69l-.31.11-.17-.45.5-.22h.28l.46,2.51H160Z" transform="translate(-0.02)"/>
  <path class="cls-5" d="M161.07,128.39c-.13-.72.11-1.29.6-1.29s.94.56,1.07,1.29-.1,1.29-.61,1.29S161.2,129.12,161.07,128.39Zm1.24,0c-.08-.45-.3-.79-.55-.79s-.35.33-.27.79.31.8.56.8S162.4,128.85,162.31,128.39Z" transform="translate(-0.02)"/>
  <path class="cls-5" d="M163.57,128.39c-.13-.73.1-1.29.6-1.29s.93.55,1.06,1.28-.1,1.29-.6,1.3S163.7,129.12,163.57,128.39Zm1.24,0c-.08-.46-.31-.8-.56-.8s-.34.33-.26.8.31.79.56.79S164.89,128.84,164.81,128.39Z" transform="translate(-0.02)"/>
  <path class="cls-5" d="M157.15,131.78l-.3.1-.17-.44.5-.22h.28l.45,2.51h-.4Z" transform="translate(-0.02)"/>
  <path class="cls-5" d="M158.62,132.48c-.13-.72.1-1.29.6-1.29s.94.56,1.07,1.29-.11,1.29-.61,1.29S158.75,133.21,158.62,132.48Zm1.24,0c-.08-.45-.31-.79-.55-.79s-.35.33-.27.79.31.8.56.8S160,132.94,159.86,132.48Z" transform="translate(-0.02)"/>
  <path class="cls-5" d="M161.11,132.48c-.13-.73.11-1.29.61-1.29s.93.55,1.06,1.28-.1,1.29-.6,1.3S161.25,133.21,161.11,132.48Zm1.25,0c-.08-.45-.31-.79-.56-.79s-.35.33-.26.8.3.79.55.79S162.44,132.93,162.36,132.47Z" transform="translate(-0.02)"/>
  <path class="cls-5" d="M166.06,128.38c-.13-.72.11-1.29.61-1.29s.93.56,1.06,1.29-.1,1.29-.6,1.29S166.19,129.11,166.06,128.38Zm1.25,0c-.09-.45-.31-.79-.56-.79s-.35.33-.26.79.3.8.55.8S167.39,128.84,167.31,128.38Z" transform="translate(-0.02)"/>
  <path class="cls-5" d="M168.75,127.67l-.31.1-.17-.44.5-.22h.29l.45,2.51h-.41Z" transform="translate(-0.02)"/>
  <g>
    <g>
      <path class="cls-17" d="M202.4,99.37a4.67,4.67,0,0,1,4.45,2.77c1.4,2.55.43,5.56,3.91,7.88s3,5.24,2.29,8.91-3.62,8.09-7.1,7.88-9.43-9.84-9.22-13.06,1.25-3.61.43-5.75A6.72,6.72,0,0,1,202.4,99.37Z" transform="translate(-0.02)"/>
      <path class="cls-12" d="M203.76,114.67l0,0c-.39-.18-.42-.94-.07-4.09l-.18,0-3.11.2s-.07,1.28-.2,2.49q0,.36-.09.69C197.8,117.06,202.84,118.47,203.76,114.67Z" transform="translate(-0.02)"/>
      <path class="cls-18" d="M197.41,199.31h6.71a6.61,6.61,0,0,0-.19-2.42,11.3,11.3,0,0,1-.9-2.38,1.74,1.74,0,0,1-1.93.79,9.45,9.45,0,0,1-1.16,2C199.5,197.75,197.55,197.6,197.41,199.31Z" transform="translate(-0.02)"/>
      <path class="cls-14" d="M205.29,162.47a15.54,15.54,0,0,0-1,5.62h0a5,5,0,0,0,.07.54c2.2,11.82-.92,27.22-.92,27.22a9.49,9.49,0,0,1-1.42.33c-1.06.12-1.21-.3-1.21-.3s-1.05-12.56-4.46-36.56c-.49-3.46-.68-5.38-.86-8.46,0-.93-.1-2-.16-3.16-.15-3.23.21-8.68,2-10.11.82-.65,1.94-.47,3.45,1.12.12.13.23.28.36.41C210.46,148.06,207.2,156.15,205.29,162.47Z" transform="translate(-0.02)"/>
      <path class="cls-15" d="M204.33,168.09c-.1-.49-3.43-16.09-3.48-17.28-.12-2.55,4.27,4.49,4.44,11.66A15.54,15.54,0,0,0,204.33,168.09Z" transform="translate(-0.02)"/>
      <path class="cls-18" d="M227.87,180.34l-2.79-8.19a3.52,3.52,0,0,0-1.56,1.24c-.54.82-.93.68-2.15-.46a11.1,11.1,0,0,1,.81,2.77c.22,0,1.5,1.7,2.81,2.16C225.52,178,226.66,180.89,227.87,180.34Z" transform="translate(-0.02)"/>
      <path class="cls-14" d="M198.58,141.2s6,28.07,8.22,29.88,13.1,5.4,16.32,6.26a11.74,11.74,0,0,0-.05-2.35c0-.26-.37-1.2-.37-1.2S217,166.1,211.38,165c-1.17-.23.47-24.77-7.47-25.74C196.65,138.41,198.58,141.2,198.58,141.2Z" transform="translate(-0.02)"/>
      <path class="cls-12" d="M189.66,97s.14-.9.29-1.58a6,6,0,0,0-.72-2.55c-.33-.25-1.17,1.1-.93,2.13.12.53.32,2.26.32,2.26Z" transform="translate(-0.02)"/>
      <path class="cls-12" d="M217.44,98.69c0,.11.1.32.15.51v-.15a5.94,5.94,0,0,1,1.5-2.59c.44-.13,1,1.81.51,2.89-.28.55-1.13,2.52-1.13,2.52l-.93-.76a2.25,2.25,0,0,0-.26-1,8.29,8.29,0,0,1-.18-1.68S217.29,98.27,217.44,98.69Z" transform="translate(-0.02)"/>
      <path class="cls-19" d="M200.43,110.75s-.07,1.28-.2,2.49c1.69.27,2.82-1.62,3.31-2.69Z" transform="translate(-0.02)"/>
      <path class="cls-17" d="M204.12,110a14.18,14.18,0,0,0,1.61-3.55c.31-1.21.35-5.92-3.18-5.94a3.7,3.7,0,0,0-2.06.6c-.82.53-2.07,1.78-1.31,6.05l.17,1.42Z" transform="translate(-0.02)"/>
      <path class="cls-12" d="M199.61,111.76s4.33,1,4.73-2.67,1.24-6-1.51-6.71-3.44.5-3.8,1.67S198.49,111.42,199.61,111.76Z" transform="translate(-0.02)"/>
      <path class="cls-17" d="M200.43,101.87s1.15,4.52,2.9,5.51,2.62.5,2.62.5a8.37,8.37,0,0,1-1.23-4.44S201.55,100,200.43,101.87Z" transform="translate(-0.02)"/>
      <path class="cls-17" d="M201.12,102.3a3.34,3.34,0,0,0-1.51,1.43,9.12,9.12,0,0,0-.84,2.84s-.57-3.07.62-4.51S201.12,102.3,201.12,102.3Z" transform="translate(-0.02)"/>
      <path class="cls-2" d="M218.65,101.89s-1,10.42-3,12.92c-1.39,1.73-6.32,4.52-7.5,7.09a10.63,10.63,0,0,0-.44,2.47,57.82,57.82,0,0,0,1.33,18.57l.27,1a2,2,0,0,1-.77,2.26A17.6,17.6,0,0,1,205,147.5c-.28.07-.58.13-.88.18a11.24,11.24,0,0,1-8.35-1.56,2.79,2.79,0,0,1-1-2.41c.08-2.06.85-4.09,1.2-9,.26-3.76-1.65-9-1.55-11,0-.79.33-4.29,0-4.84-2-3.62-5.27-7.09-5.78-10.4-.59-3.81-.21-11.43-.21-11.43a2.75,2.75,0,0,1,.92-.31c.56,0,.95.69.95.69s1.47,7.42,1.55,7.91c.39,2.66,4.16,6.52,5.3,7.29a7.56,7.56,0,0,0,3,1.4s-.93,2.16.45,2.46c1.65.36,2.93-2.2,2.93-2.2a5.58,5.58,0,0,0,2.82,0c1.5-.29,6.84-2.72,7.62-4.56.56-1.34,3.53-8.76,3.53-8.76s.27-.22.72.09A1.25,1.25,0,0,1,218.65,101.89Z" transform="translate(-0.02)"/>
      <path class="cls-13" d="M200.86,109.79s-.18.5-.43.51a2.22,2.22,0,0,1-.93-.16,6.13,6.13,0,0,1-.14-.61A3.24,3.24,0,0,1,200.86,109.79Z" transform="translate(-0.02)"/>
      <path class="cls-5" d="M209.08,142.94s-3.71-.86-4-4.41c-.26-3.78,2.62-14.17,2.62-14.17h0A57.82,57.82,0,0,0,209.08,142.94Z" transform="translate(-0.02)"/>
    </g>
    <g>
      <path class="cls-9" d="M200,55.55l-.38-1.91c-.42-2-1.72-3.55-3.29-3.8l-10.1-1.6-.76,8.61-3.23,36.74,41.79,6.62,3.23-36.74-23.64-3.75C201.91,59.45,200.48,57.8,200,55.55Z" transform="translate(-0.02)"/>
      <g>
        <path class="cls-13" d="M190.13,76.81l.29-3.26,9-3.67-.3,3.34-6.25,2.34,5.67,4.24-.29,3.39Z" transform="translate(-0.02)"/>
        <path class="cls-13" d="M208.62,67.38l2.27.36-9.74,20.69-2.28-.36Z" transform="translate(-0.02)"/>
        <path class="cls-13" d="M219.6,78.17l-.29,3.27-9,3.67.29-3.34,6.26-2.35-5.68-4.24.3-3.38Z" transform="translate(-0.02)"/>
      </g>
    </g>
    <path class="cls-12" d="M217.2,99.87a13.4,13.4,0,0,0-.23-1.71c-.1-.27.16-.35.39.27s.68.43.91,1,0,.77-.25.74A3.55,3.55,0,0,1,217.2,99.87Z" transform="translate(-0.02)"/>
    <path class="cls-12" d="M189.74,96.55a3.89,3.89,0,0,0,.61-1.28c0-.4.43-1.39.31-1.57s-.34.11-.45.38-.58.25-.69,1A3.07,3.07,0,0,0,189.74,96.55Z" transform="translate(-0.02)"/>
  </g>
  <g>
    <g>
      <g>
        <polygon class="cls-11" points="92.69 91.98 108.56 101.32 108.56 93.01 100.3 88.45 108.56 83.89 108.56 75.66 92.69 84.99 92.69 91.98"/>
        <polygon class="cls-11" points="123.15 69.91 109.44 108.39 115.24 108.39 128.95 69.91 123.15 69.91"/>
      </g>
      <polygon class="cls-11" points="130.01 75.66 130.01 83.96 138.28 88.53 130.01 93.09 130.01 101.32 145.88 91.98 145.88 84.99 130.01 75.66"/>
    </g>
    <rect class="cls-11" x="109.44" y="106.19" width="5.8" height="2.2"/>
    <rect class="cls-11" x="126.24" y="67.71" width="2.71" height="2.2"/>
  </g>
  <g>
    <g>
      <polygon class="cls-20" points="92.69 89.79 108.56 99.12 108.56 90.82 100.3 86.25 108.56 81.69 108.56 73.46 92.69 82.79 92.69 89.79"/>
      <polygon class="cls-20" points="123.15 67.71 109.44 106.19 115.24 106.19 128.95 67.71 123.15 67.71"/>
    </g>
    <polygon class="cls-20" points="130.01 73.46 130.01 81.77 138.28 86.33 130.01 90.89 130.01 99.12 145.88 89.79 145.88 82.79 130.01 73.46"/>
  </g>
  <polygon class="cls-5" points="181.69 151.01 180.73 151.01 172.82 110.5 162.65 58.41 49.09 58.41 66.29 151.01 65.06 151.03 47.66 57.15 163.45 57.02 163.55 57.53 173.71 109.9 181.69 151.01"/>
  <polygon class="cls-2" points="181.87 151.92 180.94 152.09 172.82 110.5 173.71 109.9 181.87 151.92"/>
  <path class="cls-12" d="M65.34,80.22a1.32,1.32,0,0,0-.14,1.08h0a6.41,6.41,0,0,0,1.58,2.33c.09.1.18.19.25.28l.06.07,0,.05c.7.86.43,1.06,1.68,2.8,1.42,2,2.4,2,2.68,1.84s-.24-1.2-.77-2.39l-.08-.17-.21-.48c-.62-1.42-.46-2.09-.31-4.21.12-1.73,2-9.64,2-9.64l-2.72-.63s-.82,6.3-1.73,7.27c-.48.52-1,.52-1.49.91l-.1.08A4.36,4.36,0,0,0,65.34,80.22Z" transform="translate(-0.02)"/>
  <path class="cls-15" d="M65.34,80.22a1.32,1.32,0,0,0-.14,1.08h0a7.3,7.3,0,0,0,1.58,2.32l.25.29.06.07,0,.05c.7.86.43,1.06,1.68,2.8,1.42,2,2.4,2,2.68,1.84s-.24-1.2-.77-2.39a6.41,6.41,0,0,1-2.54-2.51c-.85-1.46-1.43-3.35-2-4.44l-.1.08A4.36,4.36,0,0,0,65.34,80.22Z" transform="translate(-0.02)"/>
  <path class="cls-12" d="M87.32,77.94c.17,1.13,1.37.94,2.71.5s1,.08,2.93-.2S95.45,77,95.5,76.62s-.89-.46-1.9-.61L93.22,76c-1.14-.2-2-1.18-3-2s-2.45-3.9-2.45-3.9l-2.62.28s1.37,2.8,1.91,4a5.62,5.62,0,0,1,.25,2.4A6,6,0,0,0,87.32,77.94Z" transform="translate(-0.02)"/>
  <path class="cls-15" d="M90,78.44c1.34-.44,1,.08,2.93-.2S95.45,77,95.5,76.62s-.89-.46-1.9-.61v0a4.56,4.56,0,0,1-2.73,1.14c-1.29,0-2.66-.45-3.56-.43a6,6,0,0,0,0,1.2C87.49,79.07,88.69,78.88,90,78.44Z" transform="translate(-0.02)"/>
  <path class="cls-11" d="M77.3,55.48l-2.45,8.84L71.66,75.85a3.94,3.94,0,0,1-1.7-.21,6.77,6.77,0,0,1-1.64-1.07s.89-12.38,2.54-19.49A14.81,14.81,0,0,1,72.29,51C74.85,46.88,77.3,55.48,77.3,55.48Z" transform="translate(-0.02)"/>
  <path class="cls-14" d="M74.81,41.45c-1.6-.69-6.17.2-10.76,1.41l-1-2.13-9.91-1s-3.28,9.74-1.49,16a1.78,1.78,0,0,0,1.68,1.51h8c4.93,0,10.44-4.55,11.15-4.74,1.17-.32,1.63,2.81,2.8,6.1s11,14.55,11,14.55a6.58,6.58,0,0,0,2.13-.29,2.18,2.18,0,0,0,.91-.78S78.42,43,74.81,41.45Z" transform="translate(-0.02)"/>
  <path class="cls-20" d="M59.8.21a7.83,7.83,0,0,0-3.6,0c-3.77.5-5,6.15-4.47,10.53.53,4.05-1,5.17-2.77,8.36-3.55,6.41-1.23,11.81,1.57,13.2,1.68.84,4-1.27,4-1.27A114.69,114.69,0,0,0,64.87,21C69.85,18.41,63.34,1.43,59.8.21Z" transform="translate(-0.02)"/>
  <path class="cls-12" d="M60.36,18.74c.1.47-1.55,1.33-2.81,1S55,17.59,55.31,17.42c.46-.29.76-1,.51-4.9l.23,0,3.79.58s0,1.58.1,3.07A12.89,12.89,0,0,0,60.36,18.74Z" transform="translate(-0.02)"/>
  <path class="cls-19" d="M59.84,13.14s0,1.58.1,3.07c-2.09.15-3.35-2.29-3.89-3.65Z" transform="translate(-0.02)"/>
  <path class="cls-12" d="M60.62,14.47s-4.93.65-5.19-3.48-1.06-6.83,2.08-7.42,3.85.92,4.18,2.27S61.9,14.19,60.62,14.47Z" transform="translate(-0.02)"/>
  <path class="cls-20" d="M60.09,2.92s-.62,5-3.43,6.24c-2,.87-3,.3-3,.3A13.41,13.41,0,0,0,55,5.26a2,2,0,0,1,1-1.54C57.48,3.08,59.25,1.32,60.09,2.92Z" transform="translate(-0.02)"/>
  <path class="cls-20" d="M59.16,4s.93.28,1.76,1.89A10.68,10.68,0,0,1,61.8,10s.86-4.67-.4-6.4S59.16,4,59.16,4Z" transform="translate(-0.02)"/>
  <path class="cls-9" d="M51.48,32.31c.09.5.16,1,.22,1.39.1.68.17,1.28.22,1.8.15,1.63.11,2.59.21,3.65a11.78,11.78,0,0,0,.37,2c.2.76,5.56,1.44,8.61,1.16a3.27,3.27,0,0,0,2-.57c1.09-1.27,1,1.52,1.13-11.82.07-6.52-4.12-12.31-4.12-12.31s-.33,2.78-4.48-.53c-.15-.12-1.79,3.13-3.36,7.14C50.51,28.62,51,29.55,51.48,32.31Z" transform="translate(-0.02)"/>
  <path class="cls-20" d="M74.85,64.32,71.66,75.85a3.94,3.94,0,0,1-1.7-.21,6.77,6.77,0,0,1-1.64-1.07s.89-12.38,2.54-19.49Z" transform="translate(-0.02)"/>
  <path class="cls-9" d="M60.09,17.58s4.28,1,4.78,3.45,4,16.28,4,16.28-2.69,1.23-3.69-.12-3.49-12.5-3.49-12.5Z" transform="translate(-0.02)"/>
  <path class="cls-12" d="M77.51,34.14l1-.54a1.87,1.87,0,0,1,.93-.05c.33.14,1.16.13,1.16.31s-.94.75-.94.75l0,0c.36,1.09,2.15,1.71,2.24,2.11s-.73.73-1.19.88a2,2,0,0,1-2.11-.64c-.4-.56-1.08-1.34-1.08-1.34Z" transform="translate(-0.02)"/>
  <path class="cls-13" d="M59.48,12s.21.68.76.68.69-.11.79-.27a2.1,2.1,0,0,0,.21-.45A3.5,3.5,0,0,0,59.48,12Z" transform="translate(-0.02)"/>
  <path class="cls-9" d="M67.65,32.54,78,33.6a5.58,5.58,0,0,1-.45,2.87s-9.33,2.45-11.77,1.2-2.16-7.15-2.16-7.15Z" transform="translate(-0.02)"/>
  <path class="cls-8" d="M51.92,35.5c.15,1.63.11,2.59.21,3.65,3.88,0,9.07-4,9.07-4Z" transform="translate(-0.02)"/>
  <path class="cls-8" d="M61.2,31.71s-6.05-.24-7.07-4.86c-1.12-5.06-2.37,2.09-2.37,2.09l.67,4.56h6.63Z" transform="translate(-0.02)"/>
  <g>
    <path class="cls-2" d="M71.73,19.19l-.32-1.08a2.4,2.4,0,0,0-2.13-1.93h-6V43.23H88.18V21.31H74.08A2.66,2.66,0,0,1,71.73,19.19Z" transform="translate(-0.02)"/>
    <g>
      <path class="cls-13" d="M67,32.63v-2l5.1-3v2l-3.56,2,3.56,2v2Z" transform="translate(-0.02)"/>
      <path class="cls-13" d="M77.4,25.35h1.36L74.1,38.44H72.74Z" transform="translate(-0.02)"/>
      <path class="cls-13" d="M84.42,30.68v2l-5.09,3v-2l3.55-2-3.55-2v-2Z" transform="translate(-0.02)"/>
    </g>
  </g>
  <path class="cls-12" d="M61.2,32.78l.43-.92a3.3,3.3,0,0,0,.84-.61c.57-.55.5-1.36.78-1.28v1.8h0c1.24.45,2.68,0,2.71.38a2,2,0,0,1-1.12,2,1.59,1.59,0,0,1-1.66.36c-.56-.23-1.43-.47-1.43-.47Z" transform="translate(-0.02)"/>
  <path class="cls-9" d="M55.61,17.06s-3.93.34-4.91,2.4S48.5,31.94,49,35.52s13.08-.68,13.08-.68l-.4-3.11s-7.25.06-7.67-1.21C53.47,28.83,55.61,17.06,55.61,17.06Z" transform="translate(-0.02)"/>
  <path class="cls-12" d="M74.55,21.3c0,.14.59,1.52,1.48,1.28.55-.15,1.28-1.76.64-2.11A1.59,1.59,0,0,0,74.55,21.3Z" transform="translate(-0.02)"/>
</svg>